<svg xmlns="http://www.w3.org/2000/svg" width="420mm" height="297mm" viewBox="0 0 420 297">
  <rect width="420" height="297" fill="white"/>

  <defs>
    <!-- Миллиметровка -->
    <pattern id="mm1" width="1" height="1" patternUnits="userSpaceOnUse">
      <line x1="0" y1="0" x2="0" y2="1" stroke="#c8d8e8" stroke-width="0.1"/>
      <line x1="0" y1="0" x2="1" y2="0" stroke="#c8d8e8" stroke-width="0.1"/>
    </pattern>
    <pattern id="mm5" width="5" height="5" patternUnits="userSpaceOnUse">
      <rect width="5" height="5" fill="url(#mm1)"/>
      <line x1="0" y1="0" x2="0" y2="5" stroke="#90b0d0" stroke-width="0.15"/>
      <line x1="0" y1="0" x2="5" y2="0" stroke="#90b0d0" stroke-width="0.15"/>
    </pattern>

    <!-- УГО: Узел (точка соединения), ГОСТ 2.721 -->
    <symbol id="ugo-node" overflow="visible">
      <rect x="-5" y="-5" width="10" height="10" fill="none" stroke="red" stroke-width="0.15" stroke-dasharray="1,1" opacity="0.5"/>
      <circle cx="0" cy="0" r="0.7" fill="black" stroke="none"/>
    </symbol>

    <!-- УГО: Заземлитель (однополюсный), ГОСТ 2.751 -->
    <symbol id="ugo-ground" overflow="visible">
      <rect x="-5" y="0" width="10" height="10" fill="none" stroke="red" stroke-width="0.15" stroke-dasharray="1,1" opacity="0.5"/>
      <g stroke="black" stroke-width="0.5">
        <line x1="0" y1="0" x2="0" y2="5"/>
        <line x1="-4" y1="5" x2="4" y2="5"/>
        <line x1="-2.5" y1="7" x2="2.5" y2="7"/>
        <line x1="-1" y1="9" x2="1" y2="9"/>
      </g>
    </symbol>

    <!-- УГО: Контакт нормально разомкнутый, ГОСТ 2.755, выводы 5мм + зазор 10мм = 20мм, угол 30° -->
    <symbol id="ugo-contact" overflow="visible">
      <rect x="-5" y="0" width="5" height="20" fill="none" stroke="red" stroke-width="0.15" stroke-dasharray="1,1" opacity="0.5"/>
      <g stroke="black" stroke-width="0.5" fill="none">
        <line x1="0" y1="0" x2="0" y2="8"/>
        <line x1="0" y1="15" x2="-5" y2="6"/>
        <line x1="0" y1="15" x2="0" y2="20"/>
      </g>
    </symbol>

    <!-- УГО: Автоматический выключатель, ГОСТ 2.755 (п.5 табл.1 — прямоугольник на рычаге) -->
    <symbol id="ugo-breaker" overflow="visible">
      <rect x="-5" y="0" width="5" height="20" fill="none" stroke="red" stroke-width="0.15" stroke-dasharray="1,1" opacity="0.5"/>
      <g stroke="black" stroke-width="0.5" fill="none">
        <line x1="0" y1="0" x2="0" y2="7"/>
        <line x1="-1" y1="6" x2="1" y2="8"/>
        <line x1="-1" y1="8" x2="1" y2="6"/>
        <line x1="0" y1="15" x2="-5" y2="6"/>
        <rect x="-2" y="-1.5" width="2" height="3" fill="none" stroke="black" stroke-width="0.5" transform="translate(-2.5, 10.5) rotate(-30)"/>
        <line x1="0" y1="15" x2="0" y2="20"/>
      </g>
    </symbol>

    <!-- УГО: Обмотка генератора (двухполюсная), ГОСТ 2.723, d=10мм -->
    <symbol id="ugo-generator" overflow="visible">
      <rect x="-5" y="0" width="10" height="20" fill="none" stroke="red" stroke-width="0.15" stroke-dasharray="1,1" opacity="0.5"/>
      <g stroke="black" stroke-width="0.5" fill="none">
        <line x1="0" y1="0" x2="0" y2="5"/>
        <circle cx="0" cy="10" r="5"/>
        <path d="M-3,10 C-3,7.5 0,7.5 0,10 S3,12.5 3,10" stroke-width="0.3"/>
        <line x1="0" y1="15" x2="0" y2="20"/>
      </g>
    </symbol>

    <!-- УГО: Лампочка (двухполюсная), ГОСТ 2.732, d=10мм -->
    <symbol id="ugo-lamp" overflow="visible">
      <rect x="-5" y="0" width="10" height="20" fill="none" stroke="red" stroke-width="0.15" stroke-dasharray="1,1" opacity="0.5"/>
      <g stroke="black" stroke-width="0.5" fill="none">
        <line x1="0" y1="0" x2="0" y2="5"/>
        <circle cx="0" cy="10" r="5"/>
        <line x1="-3.5" y1="6.5" x2="3.5" y2="13.5"/>
        <line x1="3.5" y1="6.5" x2="-3.5" y2="13.5"/>
        <line x1="0" y1="15" x2="0" y2="20"/>
      </g>
    </symbol>

    <!-- УГО: Муфта (кабельный разветвитель), 10×5мм -->
    <symbol id="ugo-mufta" overflow="visible">
      <rect x="-5" y="0" width="10" height="5" fill="none" stroke="red" stroke-width="0.15" stroke-dasharray="1,1" opacity="0.5"/>
      <polygon points="-3,0 3,0 0,5" stroke="black" stroke-width="0.5" fill="none"/>
    </symbol>
  </defs>

  <rect width="420" height="297" fill="url(#mm5)"/>

  <!-- Рамка ГОСТ 2.104-2006, A3 альбомная -->
  <rect x="20" y="5" width="395" height="287" fill="none" stroke="black" stroke-width="0.7"/>

  <!-- Основная надпись (форма 1), 185×55мм -->
  <g stroke="black" stroke-width="0.3" font-family="sans-serif" fill="none">
    <!-- Внешний контур -->
    <rect x="230" y="237" width="185" height="55" stroke-width="0.7"/>
    <!-- Горизонтальные линии (снизу вверх от y=292) -->
    <line x1="230" y1="287" x2="415" y2="287"/>
    <line x1="230" y1="282" x2="415" y2="282"/>
    <line x1="230" y1="277" x2="415" y2="277"/>
    <line x1="230" y1="272" x2="415" y2="272"/>
    <line x1="230" y1="267" x2="415" y2="267"/>
    <line x1="230" y1="262" x2="353" y2="262"/>
    <line x1="230" y1="252" x2="353" y2="252"/>
    <!-- Вертикальные линии -->
    <line x1="237" y1="267" x2="237" y2="292"/>
    <line x1="247" y1="267" x2="247" y2="292"/>
    <line x1="270" y1="267" x2="270" y2="292"/>
    <line x1="281" y1="267" x2="281" y2="292"/>
    <line x1="295" y1="267" x2="295" y2="292"/>
    <line x1="353" y1="237" x2="353" y2="292"/>
    <line x1="368" y1="237" x2="368" y2="252"/>
    <line x1="375" y1="237" x2="375" y2="252"/>
    <line x1="383" y1="237" x2="383" y2="252"/>
    <line x1="393" y1="237" x2="393" y2="252"/>
    <!-- Текст заголовков -->
    <g font-size="1.8" fill="black" stroke="none">
      <text x="231" y="291">Изм.</text>
      <text x="238" y="291">Лист</text>
      <text x="248" y="291">№ докум.</text>
      <text x="271" y="291">Подп.</text>
      <text x="282" y="291">Дата</text>
    </g>
    <!-- Текст строк -->
    <g font-size="2.2" fill="black" stroke="none">
      <text x="231" y="286">Разраб.</text>
      <text x="231" y="281">Пров.</text>
      <text x="231" y="271">Н. контр.</text>
      <text x="231" y="276">Т. контр.</text>
      <text x="231" y="266">Утв.</text>
    </g>
    <!-- Название документа -->
    <text x="391.5" y="260" font-size="5" fill="black" stroke="none" text-anchor="middle" font-weight="bold">Однолинейная схема</text>
    <text x="391.5" y="266" font-size="5" fill="black" stroke="none" text-anchor="middle" font-weight="bold">электроснабжения</text>
    <!-- Литера, масса, масштаб -->
    <g font-size="1.8" fill="black" stroke="none">
      <text x="354" y="251">Лит.</text>
      <text x="376" y="251">Масса</text>
      <text x="384" y="251">Масштаб</text>
    </g>
    <!-- Лист / Листов -->
    <g font-size="1.8" fill="black" stroke="none">
      <text x="394" y="251">Лист</text>
      <text x="394" y="244" text-anchor="middle">1</text>
    </g>
  </g>

  <!-- Корпус РУ (шины + АВ + муфты) -->
  <rect x="50" y="10" width="175" height="90" fill="none" stroke="black" stroke-width="0.3" stroke-dasharray="2,1"/>

  <!-- Питающие проводники (горизонтальные, внутри корпуса) -->
  <line x1="60" y1="15" x2="220" y2="15" stroke="#8B4513" stroke-width="0.5"/>
  <line x1="60" y1="20" x2="220" y2="20" stroke="#0000CC" stroke-width="0.5"/>
  <g stroke-width="0.7">
    <line x1="60" y1="25" x2="220" y2="25" stroke="#228B22"/>
    <line x1="60" y1="25" x2="220" y2="25" stroke="#FFD700" stroke-dasharray="2,2"/>
  </g>

  <!-- Корпуса приёмников -->
  <rect x="50" y="220" width="25" height="45" fill="none" stroke="black" stroke-width="0.3" stroke-dasharray="2,1"/>
  <rect x="100" y="220" width="25" height="45" fill="none" stroke="black" stroke-width="0.3" stroke-dasharray="2,1"/>
  <rect x="150" y="220" width="25" height="45" fill="none" stroke="black" stroke-width="0.3" stroke-dasharray="2,1"/>

  <!-- L (фаза) — коричневый -->
  <g stroke="#8B4513" stroke-width="0.5">
    <!-- Генератор: АВ от L шины -->
    <line x1="65" y1="15" x2="65" y2="35"/>
    <!-- Генератор: АВ → муфта -->
    <line x1="65" y1="55" x2="65" y2="95"/>
    <!-- Генератор: нижняя муфта → генератор -->
    <line x1="65" y1="225" x2="65" y2="235"/>
    <!-- Лампа: АВ от L шины -->
    <line x1="115" y1="15" x2="115" y2="35"/>
    <!-- Лампа: АВ → контакт -->
    <line x1="115" y1="55" x2="115" y2="60"/>
    <!-- Лампа: контакт → муфта -->
    <line x1="115" y1="80" x2="115" y2="95"/>
    <!-- Лампа: нижняя муфта → лампа -->
    <line x1="115" y1="225" x2="115" y2="235"/>
    <!-- Лампа 2: АВ от L шины -->
    <line x1="165" y1="15" x2="165" y2="35"/>
    <!-- Лампа 2: АВ → контакт -->
    <line x1="165" y1="55" x2="165" y2="60"/>
    <!-- Лампа 2: контакт → муфта -->
    <line x1="165" y1="80" x2="165" y2="95"/>
    <!-- Лампа 2: нижняя муфта → лампа -->
    <line x1="165" y1="225" x2="165" y2="235"/>
  </g>
  <use href="#ugo-breaker" x="65" y="35"/>
  <use href="#ugo-breaker" x="115" y="35"/>
  <use href="#ugo-contact" x="115" y="60"/>
  <use href="#ugo-breaker" x="165" y="35"/>
  <use href="#ugo-contact" x="165" y="60"/>

  <!-- Кабель генератора: муфта верхняя → кабель → муфта нижняя -->
  <use href="#ugo-mufta" x="65" y="95"/>
  <line x1="65" y1="100" x2="65" y2="220" stroke="black" stroke-width="0.5"/>
  <g transform="translate(65, 225) scale(1, -1)">
    <use href="#ugo-mufta"/>
  </g>

  <!-- Кабель лампы 1: муфта верхняя → кабель → муфта нижняя -->
  <use href="#ugo-mufta" x="115" y="95"/>
  <line x1="115" y1="100" x2="115" y2="220" stroke="black" stroke-width="0.5"/>
  <g transform="translate(115, 225) scale(1, -1)">
    <use href="#ugo-mufta"/>
  </g>

  <!-- Кабель лампы 2: муфта верхняя → кабель → муфта нижняя -->
  <use href="#ugo-mufta" x="165" y="95"/>
  <line x1="165" y1="100" x2="165" y2="220" stroke="black" stroke-width="0.5"/>
  <g transform="translate(165, 225) scale(1, -1)">
    <use href="#ugo-mufta"/>
  </g>

  <!-- N (нейтраль) — синий -->
  <g stroke="#0000CC" stroke-width="0.5">
    <!-- Сверху: N шина → вниз → диагональ 1:2 в верхнюю муфту -->
    <line x1="70" y1="20" x2="70" y2="85"/>
    <line x1="70" y1="85" x2="65" y2="95"/>
    <!-- Снизу генератора: нижняя муфта → диагональ → внутри корпуса → генератор -->
    <line x1="65" y1="225" x2="55" y2="235"/>
    <line x1="55" y1="235" x2="55" y2="260"/>
    <line x1="55" y1="260" x2="65" y2="260"/>
    <line x1="65" y1="260" x2="65" y2="255"/>
    <!-- Лампа сверху: N шина → вниз → диагональ 1:2 в верхнюю муфту -->
    <line x1="120" y1="20" x2="120" y2="85"/>
    <line x1="120" y1="85" x2="115" y2="95"/>
    <!-- Лампа 1 снизу: нижняя муфта → диагональ 1:1 → вниз → лампа -->
    <line x1="115" y1="225" x2="105" y2="235"/>
    <line x1="105" y1="235" x2="105" y2="255"/>
    <line x1="105" y1="255" x2="115" y2="255"/>
    <!-- Лампа 2 сверху: N шина → вниз → диагональ 1:2 в верхнюю муфту -->
    <line x1="170" y1="20" x2="170" y2="85"/>
    <line x1="170" y1="85" x2="165" y2="95"/>
    <!-- Лампа 2 снизу: нижняя муфта → диагональ 1:1 → вниз → лампа -->
    <line x1="165" y1="225" x2="155" y2="235"/>
    <line x1="155" y1="235" x2="155" y2="255"/>
    <line x1="155" y1="255" x2="165" y2="255"/>
  </g>



  <!-- PE (защитное заземление) — жёлто-зелёный -->
  <g stroke-width="0.7">
    <!-- Зелёная основа -->
    <!-- Генератор сверху: муфта → диагональ 1:1 → вверх к PE шине -->
    <line x1="65" y1="95" x2="75" y2="85" stroke="#228B22"/>
    <line x1="75" y1="85" x2="75" y2="25" stroke="#228B22"/>
    <!-- Генератор снизу: муфта → диагональ 1:1 → правая стенка корпуса -->
    <line x1="65" y1="225" x2="75" y2="235" stroke="#228B22"/>
    <!-- Лампа сверху: PE шина → вниз → диагональ 1:1 → верхняя муфта -->
    <line x1="125" y1="25" x2="125" y2="85" stroke="#228B22"/>
    <line x1="125" y1="85" x2="115" y2="95" stroke="#228B22"/>
    <!-- Лампа 1 снизу: нижняя муфта → диагональ 1:1 → правая стенка корпуса -->
    <line x1="115" y1="225" x2="125" y2="235" stroke="#228B22"/>
    <!-- Лампа 2 сверху: PE шина → вниз → диагональ 1:1 → верхняя муфта -->
    <line x1="175" y1="25" x2="175" y2="85" stroke="#228B22"/>
    <line x1="175" y1="85" x2="165" y2="95" stroke="#228B22"/>
    <!-- Лампа 2 снизу: нижняя муфта → диагональ 1:1 → правая стенка корпуса -->
    <line x1="165" y1="225" x2="175" y2="235" stroke="#228B22"/>
    <!-- Перемычка PE → N -->
    <line x1="215" y1="25" x2="215" y2="20" stroke="#228B22"/>
    <!-- Заземлитель: PE шина → вниз -->
    <line x1="215" y1="25" x2="215" y2="235" stroke="#228B22"/>
    <!-- Жёлтый пунктир поверх -->
    <line x1="65" y1="95" x2="75" y2="85" stroke="#FFD700" stroke-dasharray="2,2"/>
    <line x1="75" y1="85" x2="75" y2="25" stroke="#FFD700" stroke-dasharray="2,2"/>
    <line x1="65" y1="225" x2="75" y2="235" stroke="#FFD700" stroke-dasharray="2,2"/>
    <line x1="125" y1="25" x2="125" y2="85" stroke="#FFD700" stroke-dasharray="2,2"/>
    <line x1="125" y1="85" x2="115" y2="95" stroke="#FFD700" stroke-dasharray="2,2"/>
    <line x1="115" y1="225" x2="125" y2="235" stroke="#FFD700" stroke-dasharray="2,2"/>
    <line x1="175" y1="25" x2="175" y2="85" stroke="#FFD700" stroke-dasharray="2,2"/>
    <line x1="175" y1="85" x2="165" y2="95" stroke="#FFD700" stroke-dasharray="2,2"/>
    <line x1="165" y1="225" x2="175" y2="235" stroke="#FFD700" stroke-dasharray="2,2"/>
    <line x1="215" y1="25" x2="215" y2="20" stroke="#FFD700" stroke-dasharray="2,2"/>
    <line x1="215" y1="25" x2="215" y2="235" stroke="#FFD700" stroke-dasharray="2,2"/>
  </g>
  <!-- Узлы PE -->
  <use href="#ugo-node" x="75" y="235"/>
  <use href="#ugo-node" x="75" y="25"/>
  <use href="#ugo-node" x="125" y="25"/>
  <use href="#ugo-node" x="125" y="235"/>
  <use href="#ugo-node" x="175" y="25"/>
  <use href="#ugo-node" x="175" y="235"/>
  <use href="#ugo-node" x="215" y="25"/>
  <use href="#ugo-node" x="215" y="100"/>

  <!-- Узлы на L шине -->
  <use href="#ugo-node" x="65" y="15"/>
  <use href="#ugo-node" x="115" y="15"/>
  <use href="#ugo-node" x="165" y="15"/>
  <!-- Узлы на N шине -->
  <use href="#ugo-node" x="70" y="20"/>
  <use href="#ugo-node" x="120" y="20"/>
  <use href="#ugo-node" x="170" y="20"/>
  <use href="#ugo-node" x="215" y="20"/>

  <!-- Размещение УГО на схеме -->
  <use href="#ugo-generator" x="65" y="235"/>
  <use href="#ugo-lamp" x="115" y="235"/>
  <use href="#ugo-lamp" x="165" y="235"/>
  <use href="#ugo-ground" x="215" y="235"/>

  <!-- Обозначения (ГОСТ 2.710-81) -->
  <g font-family="sans-serif" font-size="2.5" fill="black">
    <!-- Шины -->
    <text x="57" y="16.5" text-anchor="end">L</text>
    <text x="57" y="21.5" text-anchor="end">N</text>
    <text x="57" y="26.5" text-anchor="end">PE</text>
    <!-- Генератор (x=65) -->
    <text x="58" y="47" text-anchor="end">QF1</text>
    <text x="58" y="110" text-anchor="end">W1</text>
    <text x="52" y="224">G</text>
    <!-- Лампа 1 (x=115) -->
    <text x="108" y="47" text-anchor="end">QF2</text>
    <text x="108" y="72" text-anchor="end">QS1</text>
    <text x="108" y="110" text-anchor="end">W2</text>
    <text x="102" y="224">EL1</text>
    <!-- Лампа 2 (x=165) -->
    <text x="158" y="47" text-anchor="end">QF3</text>
    <text x="158" y="72" text-anchor="end">QS2</text>
    <text x="158" y="110" text-anchor="end">W3</text>
    <text x="152" y="224">EL2</text>
  </g>

  <!-- Таблица УГО (перечень условных графических обозначений) -->
  <g transform="translate(295, 20)" stroke="black" stroke-width="0.3" font-family="sans-serif">
    <!-- Заголовок -->
    <text x="60" y="-3" font-size="3.5" font-weight="bold" text-anchor="middle" stroke="none" fill="black">Условные графические обозначения</text>

    <!-- Шапка таблицы -->
    <rect x="0" y="0" width="120" height="10" fill="#eee" stroke="black"/>
    <text x="20" y="7" font-size="2.8" text-anchor="middle" stroke="none" fill="black" font-weight="bold">Обозначение</text>
    <text x="70" y="7" font-size="2.8" text-anchor="middle" stroke="none" fill="black" font-weight="bold">Наименование</text>
    <text x="110" y="7" font-size="2.8" text-anchor="middle" stroke="none" fill="black" font-weight="bold">ГОСТ</text>
    <line x1="40" y1="0" x2="40" y2="10"/>
    <line x1="100" y1="0" x2="100" y2="10"/>

    <!-- Строка 1: Заземлитель (символ 9мм, строка 20мм) -->
    <rect x="0" y="10" width="120" height="20" fill="none" stroke="black"/>
    <line x1="40" y1="10" x2="40" y2="30"/>
    <line x1="100" y1="10" x2="100" y2="30"/>
    <use href="#ugo-ground" x="20" y="15"/>
    <text x="70" y="22" font-size="2.5" text-anchor="middle" stroke="none" fill="black">Заземлитель</text>
    <text x="110" y="22" font-size="2" text-anchor="middle" stroke="none" fill="black">ГОСТ 2.751</text>

    <!-- Строка 2: Контакт нормально разомкнутый (символ 20мм, строка 30мм) -->
    <rect x="0" y="30" width="120" height="30" fill="none" stroke="black"/>
    <line x1="40" y1="30" x2="40" y2="60"/>
    <line x1="100" y1="30" x2="100" y2="60"/>
    <use href="#ugo-contact" x="20" y="35"/>
    <text x="70" y="47" font-size="2.5" text-anchor="middle" stroke="none" fill="black">Контакт нормально разомкнутый</text>
    <text x="110" y="47" font-size="2" text-anchor="middle" stroke="none" fill="black">ГОСТ 2.755</text>

    <!-- Строка 3: Автоматический выключатель (символ 20мм, строка 30мм) -->
    <rect x="0" y="60" width="120" height="30" fill="none" stroke="black"/>
    <line x1="40" y1="60" x2="40" y2="90"/>
    <line x1="100" y1="60" x2="100" y2="90"/>
    <use href="#ugo-breaker" x="20" y="65"/>
    <text x="70" y="77" font-size="2.5" text-anchor="middle" stroke="none" fill="black">Автоматический выключатель</text>
    <text x="110" y="77" font-size="2" text-anchor="middle" stroke="none" fill="black">ГОСТ 2.755</text>

    <!-- Строка 4: Обмотка генератора (символ 20мм, строка 30мм) -->
    <rect x="0" y="90" width="120" height="30" fill="none" stroke="black"/>
    <line x1="40" y1="90" x2="40" y2="120"/>
    <line x1="100" y1="90" x2="100" y2="120"/>
    <use href="#ugo-generator" x="20" y="95"/>
    <text x="70" y="105" font-size="2.5" text-anchor="middle" stroke="none" fill="black">Обмотка генератора</text>
    <text x="70" y="109" font-size="2.5" text-anchor="middle" stroke="none" fill="black">однофазная</text>
    <text x="110" y="107" font-size="2" text-anchor="middle" stroke="none" fill="black">ГОСТ 2.723</text>

    <!-- Строка 5: Лампочка (символ 20мм, строка 30мм) -->
    <rect x="0" y="120" width="120" height="30" fill="none" stroke="black"/>
    <line x1="40" y1="120" x2="40" y2="150"/>
    <line x1="100" y1="120" x2="100" y2="150"/>
    <use href="#ugo-lamp" x="20" y="125"/>
    <text x="70" y="135" font-size="2.5" text-anchor="middle" stroke="none" fill="black">Лампа накаливания</text>
    <text x="70" y="139" font-size="2.5" text-anchor="middle" stroke="none" fill="black">осветительная</text>
    <text x="110" y="137" font-size="2" text-anchor="middle" stroke="none" fill="black">ГОСТ 2.732</text>

    <!-- Строка 6: Корпус (строка 20мм) -->
    <rect x="0" y="150" width="120" height="20" fill="none" stroke="black"/>
    <line x1="40" y1="150" x2="40" y2="170"/>
    <line x1="100" y1="150" x2="100" y2="170"/>
    <rect x="10" y="155" width="20" height="10" fill="none" stroke="black" stroke-dasharray="2,1"/>
    <text x="70" y="162" font-size="2.5" text-anchor="middle" stroke="none" fill="black">Корпус (оболочка)</text>
    <text x="110" y="162" font-size="2" text-anchor="middle" stroke="none" fill="black">ГОСТ 2.721</text>

    <!-- Строка 7: Муфта (строка 15мм) -->
    <rect x="0" y="170" width="120" height="15" fill="none" stroke="black"/>
    <line x1="40" y1="170" x2="40" y2="185"/>
    <line x1="100" y1="170" x2="100" y2="185"/>
    <use href="#ugo-mufta" x="20" y="175"/>
    <text x="70" y="180" font-size="2.5" text-anchor="middle" stroke="none" fill="black">Муфта (кабельный разветвитель)</text>
    <text x="110" y="180" font-size="2" text-anchor="middle" stroke="none" fill="black">—</text>

    <!-- Строка 8: Узел (строка 20мм) -->
    <rect x="0" y="185" width="120" height="20" fill="none" stroke="black"/>
    <line x1="40" y1="185" x2="40" y2="205"/>
    <line x1="100" y1="185" x2="100" y2="205"/>
    <use href="#ugo-node" x="20" y="195"/>
    <text x="70" y="197" font-size="2.5" text-anchor="middle" stroke="none" fill="black">Узел (точка соединения)</text>
    <text x="110" y="197" font-size="2" text-anchor="middle" stroke="none" fill="black">ГОСТ 2.721</text>

    <!-- Строка 9: Кабель (строка 10мм) -->
    <rect x="0" y="205" width="120" height="10" fill="none" stroke="black"/>
    <line x1="40" y1="205" x2="40" y2="215"/>
    <line x1="100" y1="205" x2="100" y2="215"/>
    <line x1="10" y1="210" x2="30" y2="210" stroke="black" stroke-width="0.5"/>
    <text x="70" y="212" font-size="2.5" text-anchor="middle" stroke="none" fill="black">Кабель</text>
    <text x="110" y="212" font-size="2" text-anchor="middle" stroke="none" fill="black">ГОСТ Р 50462</text>

    <!-- Строка 10: L проводник (строка 10мм) -->
    <rect x="0" y="215" width="120" height="10" fill="none" stroke="black"/>
    <line x1="40" y1="215" x2="40" y2="225"/>
    <line x1="100" y1="215" x2="100" y2="225"/>
    <line x1="10" y1="220" x2="30" y2="220" stroke="#8B4513" stroke-width="0.5"/>
    <text x="70" y="222" font-size="2.5" text-anchor="middle" stroke="none" fill="black">L — фазный проводник</text>
    <text x="110" y="222" font-size="2" text-anchor="middle" stroke="none" fill="black">ГОСТ Р 50462</text>

    <!-- Строка 11: N проводник (строка 10мм) -->
    <rect x="0" y="225" width="120" height="10" fill="none" stroke="black"/>
    <line x1="40" y1="225" x2="40" y2="235"/>
    <line x1="100" y1="225" x2="100" y2="235"/>
    <line x1="10" y1="230" x2="30" y2="230" stroke="#0000CC" stroke-width="0.5"/>
    <text x="70" y="232" font-size="2.5" text-anchor="middle" stroke="none" fill="black">N — нейтральный проводник</text>
    <text x="110" y="232" font-size="2" text-anchor="middle" stroke="none" fill="black">ГОСТ Р 50462</text>

    <!-- Строка 12: PE проводник (строка 10мм) -->
    <rect x="0" y="235" width="120" height="10" fill="none" stroke="black"/>
    <line x1="40" y1="235" x2="40" y2="245"/>
    <line x1="100" y1="235" x2="100" y2="245"/>
    <line x1="10" y1="240" x2="30" y2="240" stroke="#228B22" stroke-width="0.7"/>
    <line x1="10" y1="240" x2="30" y2="240" stroke="#FFD700" stroke-width="0.7" stroke-dasharray="2,2"/>
    <text x="70" y="242" font-size="2.5" text-anchor="middle" stroke="none" fill="black">PE — защитный проводник</text>
    <text x="110" y="242" font-size="2" text-anchor="middle" stroke="none" fill="black">ГОСТ Р 50462</text>

    <!-- Строка 13: PEN проводник (строка 10мм) -->
    <rect x="0" y="245" width="120" height="10" fill="none" stroke="black"/>
    <line x1="40" y1="245" x2="40" y2="255"/>
    <line x1="100" y1="245" x2="100" y2="255"/>
    <line x1="10" y1="250" x2="30" y2="250" stroke="#228B22" stroke-width="0.7" stroke-dasharray="2,4" stroke-dashoffset="0"/>
    <line x1="10" y1="250" x2="30" y2="250" stroke="#FFD700" stroke-width="0.7" stroke-dasharray="2,4" stroke-dashoffset="4"/>
    <line x1="10" y1="250" x2="30" y2="250" stroke="#0000CC" stroke-width="0.7" stroke-dasharray="2,4" stroke-dashoffset="2"/>
    <text x="70" y="252" font-size="2.5" text-anchor="middle" stroke="none" fill="black">PEN — совмещённый проводник</text>
    <text x="110" y="252" font-size="2" text-anchor="middle" stroke="none" fill="black">ГОСТ Р 50462</text>
  </g>

</svg>
