<svg xmlns="http://www.w3.org/2000/svg" width="420mm" height="297mm" viewBox="0 0 420 297">
  <rect width="420" height="297" fill="white"/>

  <defs>
    <!-- Миллиметровка -->
    <pattern id="mm1" width="1" height="1" patternUnits="userSpaceOnUse">
      <line x1="0" y1="0" x2="0" y2="1" stroke="#c8d8e8" stroke-width="0.1"/>
      <line x1="0" y1="0" x2="1" y2="0" stroke="#c8d8e8" stroke-width="0.1"/>
    </pattern>
    <pattern id="mm5" width="5" height="5" patternUnits="userSpaceOnUse">
      <rect width="5" height="5" fill="url(#mm1)"/>
      <line x1="0" y1="0" x2="0" y2="5" stroke="#90b0d0" stroke-width="0.15"/>
      <line x1="0" y1="0" x2="5" y2="0" stroke="#90b0d0" stroke-width="0.15"/>
    </pattern>

    <!-- УГО: Заземлитель (однополюсный), ГОСТ 2.751 -->
    <symbol id="ugo-ground" overflow="visible">
      <g stroke="black" stroke-width="0.5">
        <line x1="0" y1="0" x2="0" y2="5"/>
        <line x1="-4" y1="5" x2="4" y2="5"/>
        <line x1="-2.5" y1="7" x2="2.5" y2="7"/>
        <line x1="-1" y1="9" x2="1" y2="9"/>
      </g>
    </symbol>

    <!-- УГО: Обмотка генератора (двухполюсная), ГОСТ 2.723, d=10мм -->
    <symbol id="ugo-generator" overflow="visible">
      <g stroke="black" stroke-width="0.5" fill="none">
        <line x1="0" y1="0" x2="0" y2="5"/>
        <circle cx="0" cy="10" r="5"/>
        <path d="M-3,10 C-3,7.5 0,7.5 0,10 S3,12.5 3,10" stroke-width="0.3"/>
        <line x1="0" y1="15" x2="0" y2="20"/>
      </g>
    </symbol>

    <!-- УГО: Лампочка (двухполюсная), ГОСТ 2.732, d=10мм -->
    <symbol id="ugo-lamp" overflow="visible">
      <g stroke="black" stroke-width="0.5" fill="none">
        <line x1="0" y1="0" x2="0" y2="5"/>
        <circle cx="0" cy="10" r="5"/>
        <line x1="-3.5" y1="6.5" x2="3.5" y2="13.5"/>
        <line x1="3.5" y1="6.5" x2="-3.5" y2="13.5"/>
        <line x1="0" y1="15" x2="0" y2="20"/>
      </g>
    </symbol>
  </defs>

  <rect width="420" height="297" fill="url(#mm5)"/>

  <!-- Корпуса (элемент схемы, не часть УГО) -->
  <rect x="55" y="50" width="20" height="20" fill="none" stroke="black" stroke-width="0.3" stroke-dasharray="2,1"/>
  <rect x="85" y="50" width="20" height="20" fill="none" stroke="black" stroke-width="0.3" stroke-dasharray="2,1"/>

  <!-- Провода (замкнутая цепь: генератор — лампочка) -->
  <g stroke="black" stroke-width="0.5">
    <line x1="65" y1="50" x2="95" y2="50"/>
    <line x1="65" y1="70" x2="95" y2="70"/>
  </g>

  <!-- Точка на пересечении (95,70): провод + ответвление заземлителя -->
  <circle cx="95" cy="70" r="0.7" fill="black" stroke="none"/>

  <!-- Размещение УГО на схеме -->
  <use href="#ugo-generator" x="95" y="50"/>
  <use href="#ugo-lamp" x="65" y="50"/>
  <use href="#ugo-ground" x="95" y="70"/>

  <!-- Таблица УГО (перечень условных графических обозначений) -->
  <g transform="translate(50, 110)" stroke="black" stroke-width="0.3" font-family="sans-serif">
    <!-- Заголовок -->
    <text x="60" y="-3" font-size="3.5" font-weight="bold" text-anchor="middle" stroke="none" fill="black">Условные графические обозначения</text>

    <!-- Шапка таблицы -->
    <rect x="0" y="0" width="120" height="10" fill="#eee" stroke="black"/>
    <text x="20" y="7" font-size="2.8" text-anchor="middle" stroke="none" fill="black" font-weight="bold">Обозначение</text>
    <text x="70" y="7" font-size="2.8" text-anchor="middle" stroke="none" fill="black" font-weight="bold">Наименование</text>
    <text x="110" y="7" font-size="2.8" text-anchor="middle" stroke="none" fill="black" font-weight="bold">ГОСТ</text>
    <line x1="40" y1="0" x2="40" y2="10"/>
    <line x1="100" y1="0" x2="100" y2="10"/>

    <!-- Строка 1: Заземлитель -->
    <rect x="0" y="10" width="120" height="15" fill="none" stroke="black"/>
    <line x1="40" y1="10" x2="40" y2="25"/>
    <line x1="100" y1="10" x2="100" y2="25"/>
    <use href="#ugo-ground" x="20" y="12"/>
    <text x="70" y="19" font-size="2.5" text-anchor="middle" stroke="none" fill="black">Заземлитель</text>
    <text x="110" y="19" font-size="2" text-anchor="middle" stroke="none" fill="black">ГОСТ 2.751</text>

    <!-- Строка 2: Обмотка генератора -->
    <rect x="0" y="25" width="120" height="25" fill="none" stroke="black"/>
    <line x1="40" y1="25" x2="40" y2="50"/>
    <line x1="100" y1="25" x2="100" y2="50"/>
    <use href="#ugo-generator" x="20" y="27"/>
    <text x="70" y="38" font-size="2.5" text-anchor="middle" stroke="none" fill="black">Обмотка генератора</text>
    <text x="70" y="42" font-size="2.5" text-anchor="middle" stroke="none" fill="black">однофазная</text>
    <text x="110" y="39" font-size="2" text-anchor="middle" stroke="none" fill="black">ГОСТ 2.723</text>

    <!-- Строка 3: Лампочка -->
    <rect x="0" y="50" width="120" height="25" fill="none" stroke="black"/>
    <line x1="40" y1="50" x2="40" y2="75"/>
    <line x1="100" y1="50" x2="100" y2="75"/>
    <use href="#ugo-lamp" x="20" y="52"/>
    <text x="70" y="63" font-size="2.5" text-anchor="middle" stroke="none" fill="black">Лампа накаливания</text>
    <text x="70" y="67" font-size="2.5" text-anchor="middle" stroke="none" fill="black">осветительная</text>
    <text x="110" y="64" font-size="2" text-anchor="middle" stroke="none" fill="black">ГОСТ 2.732</text>
  </g>

</svg>
