<svg xmlns="http://www.w3.org/2000/svg" width="420mm" height="297mm" viewBox="0 0 420 297">
  <rect width="420" height="297" fill="white"/>

  <defs>
    <!-- Миллиметровка -->
    <pattern id="mm1" width="1" height="1" patternUnits="userSpaceOnUse" y="1">
      <line x1="0" y1="0" x2="0" y2="1" stroke="#c8d8e8" stroke-width="0.1"/>
      <line x1="0" y1="0" x2="1" y2="0" stroke="#c8d8e8" stroke-width="0.1"/>
    </pattern>
    <pattern id="mm5" width="5" height="5" patternUnits="userSpaceOnUse" y="1">
      <rect width="5" height="5" fill="url(#mm1)"/>
      <line x1="0" y1="0" x2="0" y2="5" stroke="#90b0d0" stroke-width="0.15"/>
      <line x1="0" y1="0" x2="5" y2="0" stroke="#90b0d0" stroke-width="0.15"/>
    </pattern>

    <!-- УГО: Узел (точка соединения), ГОСТ 2.721 -->
    <symbol id="ugo-node" overflow="visible">
      <rect x="-5" y="-5" width="10" height="10" fill="none" stroke="red" stroke-width="0.15" stroke-dasharray="1,1" opacity="0.5"/>
      <circle cx="0" cy="0" r="0.7" fill="black" stroke="none"/>
    </symbol>

    <!-- УГО: Заземлитель (однополюсный), ГОСТ 2.751 -->
    <symbol id="ugo-ground" overflow="visible">
      <rect x="-5" y="0" width="10" height="10" fill="none" stroke="red" stroke-width="0.15" stroke-dasharray="1,1" opacity="0.5"/>
      <g stroke="black" stroke-width="0.5">
        <line x1="0" y1="0" x2="0" y2="5"/>
        <line x1="-4" y1="5" x2="4" y2="5"/>
        <line x1="-2.5" y1="7" x2="2.5" y2="7"/>
        <line x1="-1" y1="9" x2="1" y2="9"/>
      </g>
    </symbol>

    <!-- УГО: Контакт нормально разомкнутый, ГОСТ 2.755, выводы 5мм + зазор 10мм = 20мм, угол 30° -->
    <symbol id="ugo-contact" overflow="visible">
      <rect x="-5" y="0" width="5" height="20" fill="none" stroke="red" stroke-width="0.15" stroke-dasharray="1,1" opacity="0.5"/>
      <g stroke="black" stroke-width="0.5" fill="none">
        <line x1="0" y1="0" x2="0" y2="8"/>
        <line x1="0" y1="15" x2="-5" y2="6"/>
        <line x1="0" y1="15" x2="0" y2="20"/>
      </g>
    </symbol>

    <!-- УГО: Автоматический выключатель, ГОСТ 2.755 (п.5 табл.1 — прямоугольник на рычаге) -->
    <symbol id="ugo-breaker" overflow="visible">
      <rect x="-5" y="0" width="5" height="20" fill="none" stroke="red" stroke-width="0.15" stroke-dasharray="1,1" opacity="0.5"/>
      <g stroke="black" stroke-width="0.5" fill="none">
        <line x1="0" y1="0" x2="0" y2="7"/>
        <line x1="-1" y1="6" x2="1" y2="8"/>
        <line x1="-1" y1="8" x2="1" y2="6"/>
        <line x1="0" y1="15" x2="-5" y2="6"/>
        <rect x="-2" y="-1.5" width="2" height="3" fill="none" stroke="black" stroke-width="0.5" transform="translate(-2.5, 10.5) rotate(-30)"/>
        <line x1="0" y1="15" x2="0" y2="20"/>
      </g>
    </symbol>

    <!-- УГО: Обмотка генератора (двухполюсная), ГОСТ 2.723, d=10мм -->
    <symbol id="ugo-generator" overflow="visible">
      <rect x="-5" y="0" width="10" height="20" fill="none" stroke="red" stroke-width="0.15" stroke-dasharray="1,1" opacity="0.5"/>
      <g stroke="black" stroke-width="0.5" fill="none">
        <line x1="0" y1="0" x2="0" y2="5"/>
        <circle cx="0" cy="10" r="5"/>
        <path d="M-3,10 C-3,7.5 0,7.5 0,10 S3,12.5 3,10" stroke-width="0.3"/>
        <line x1="0" y1="15" x2="0" y2="20"/>
      </g>
    </symbol>

    <!-- УГО: Лампочка (двухполюсная), ГОСТ 2.732, d=10мм -->
    <symbol id="ugo-lamp" overflow="visible">
      <rect x="-5" y="0" width="10" height="20" fill="none" stroke="red" stroke-width="0.15" stroke-dasharray="1,1" opacity="0.5"/>
      <g stroke="black" stroke-width="0.5" fill="none">
        <line x1="0" y1="0" x2="0" y2="5"/>
        <circle cx="0" cy="10" r="5"/>
        <line x1="-3.5" y1="6.5" x2="3.5" y2="13.5"/>
        <line x1="3.5" y1="6.5" x2="-3.5" y2="13.5"/>
        <line x1="0" y1="15" x2="0" y2="20"/>
      </g>
    </symbol>

    <!-- УГО: Муфта (кабельный разветвитель), 10×5мм -->
    <symbol id="ugo-mufta" overflow="visible">
      <rect x="-5" y="0" width="10" height="5" fill="none" stroke="red" stroke-width="0.15" stroke-dasharray="1,1" opacity="0.5"/>
      <polygon points="-3,0 3,0 0,5" stroke="black" stroke-width="0.5" fill="none"/>
    </symbol>
  </defs>

  <rect x="21" y="6" width="393" height="285" fill="url(#mm5)"/>

  <!-- Рамка ГОСТ 2.104-2006, A3 альбомная -->
  <rect x="20.5" y="5.5" width="394" height="286" fill="none" stroke="black" stroke-width="1"/>

  <!-- Основная надпись (форма 1), 185×55мм -->
  <g stroke="black" stroke-width="0.3" font-family="sans-serif" fill="none">
    <!-- Внешний контур -->
    <rect x="230" y="236" width="185" height="55" stroke-width="0.7"/>
    <!-- Горизонтальные линии (снизу вверх от y=292) -->
    <line x1="230" y1="286" x2="415" y2="286"/>
    <line x1="230" y1="281" x2="415" y2="281"/>
    <line x1="230" y1="276" x2="415" y2="276"/>
    <line x1="230" y1="271" x2="415" y2="271"/>
    <line x1="230" y1="266" x2="415" y2="266"/>
    <line x1="230" y1="261" x2="353" y2="261"/>
    <line x1="230" y1="251" x2="353" y2="251"/>
    <!-- Вертикальные линии -->
    <line x1="237" y1="266" x2="237" y2="291"/>
    <line x1="247" y1="266" x2="247" y2="291"/>
    <line x1="270" y1="266" x2="270" y2="291"/>
    <line x1="281" y1="266" x2="281" y2="291"/>
    <line x1="295" y1="266" x2="295" y2="291"/>
    <line x1="353" y1="236" x2="353" y2="291"/>
    <line x1="368" y1="236" x2="368" y2="251"/>
    <line x1="375" y1="236" x2="375" y2="251"/>
    <line x1="383" y1="236" x2="383" y2="251"/>
    <line x1="393" y1="236" x2="393" y2="251"/>
    <!-- Текст заголовков -->
    <g font-size="1.8" fill="black" stroke="none">
      <text x="231" y="290">Изм.</text>
      <text x="238" y="290">Лист</text>
      <text x="248" y="290">№ докум.</text>
      <text x="271" y="290">Подп.</text>
      <text x="282" y="290">Дата</text>
    </g>
    <!-- Текст строк -->
    <g font-size="2.2" fill="black" stroke="none">
      <text x="231" y="285">Разраб.</text>
      <text x="231" y="280">Пров.</text>
      <text x="231" y="270">Н. контр.</text>
      <text x="231" y="275">Т. контр.</text>
      <text x="231" y="265">Утв.</text>
    </g>
    <!-- Название документа -->
    <text x="391.5" y="259" font-size="5" fill="black" stroke="none" text-anchor="middle" font-weight="bold">Однолинейная схема</text>
    <text x="391.5" y="265" font-size="5" fill="black" stroke="none" text-anchor="middle" font-weight="bold">электроснабжения</text>
    <!-- Литера, масса, масштаб -->
    <g font-size="1.8" fill="black" stroke="none">
      <text x="354" y="250">Лит.</text>
      <text x="376" y="250">Масса</text>
      <text x="384" y="250">Масштаб</text>
    </g>
    <!-- Лист / Листов -->
    <g font-size="1.8" fill="black" stroke="none">
      <text x="394" y="250">Лист</text>
      <text x="394" y="243" text-anchor="middle">1</text>
    </g>
  </g>

  <!-- Корпус РУ (шины + АВ + муфты) -->
  <rect x="50" y="11" width="175" height="90" fill="none" stroke="black" stroke-width="0.3" stroke-dasharray="2,1"/>

  <!-- Питающие проводники (горизонтальные, внутри корпуса) -->
  <line x1="60" y1="16" x2="220" y2="16" stroke="#8B4513" stroke-width="0.5"/>
  <line x1="60" y1="21" x2="220" y2="21" stroke="#0000CC" stroke-width="0.5"/>
  <g stroke-width="0.7">
    <line x1="60" y1="26" x2="220" y2="26" stroke="#228B22"/>
    <line x1="60" y1="26" x2="220" y2="26" stroke="#FFD700" stroke-dasharray="2,2"/>
  </g>

  <!-- Корпуса приёмников -->
  <rect x="50" y="221" width="25" height="45" fill="none" stroke="black" stroke-width="0.3" stroke-dasharray="2,1"/>
  <rect x="100" y="221" width="25" height="45" fill="none" stroke="black" stroke-width="0.3" stroke-dasharray="2,1"/>
  <rect x="150" y="221" width="25" height="45" fill="none" stroke="black" stroke-width="0.3" stroke-dasharray="2,1"/>

  <!-- L (фаза) — коричневый -->
  <g stroke="#8B4513" stroke-width="0.5">
    <!-- Генератор: АВ от L шины -->
    <line x1="65" y1="16" x2="65" y2="36"/>
    <!-- Генератор: АВ → муфта -->
    <line x1="65" y1="56" x2="65" y2="96"/>
    <!-- Генератор: нижняя муфта → генератор -->
    <line x1="65" y1="226" x2="65" y2="236"/>
    <!-- Лампа: АВ от L шины -->
    <line x1="115" y1="16" x2="115" y2="36"/>
    <!-- Лампа: АВ → контакт -->
    <line x1="115" y1="56" x2="115" y2="61"/>
    <!-- Лампа: контакт → муфта -->
    <line x1="115" y1="81" x2="115" y2="96"/>
    <!-- Лампа: нижняя муфта → лампа -->
    <line x1="115" y1="226" x2="115" y2="236"/>
    <!-- Лампа 2: АВ от L шины -->
    <line x1="165" y1="16" x2="165" y2="36"/>
    <!-- Лампа 2: АВ → контакт -->
    <line x1="165" y1="56" x2="165" y2="61"/>
    <!-- Лампа 2: контакт → муфта -->
    <line x1="165" y1="81" x2="165" y2="96"/>
    <!-- Лампа 2: нижняя муфта → лампа -->
    <line x1="165" y1="226" x2="165" y2="236"/>
  </g>
  <use href="#ugo-breaker" x="65" y="36"/>
  <use href="#ugo-breaker" x="115" y="36"/>
  <use href="#ugo-contact" x="115" y="61"/>
  <use href="#ugo-breaker" x="165" y="36"/>
  <use href="#ugo-contact" x="165" y="61"/>

  <!-- Кабель генератора: муфта верхняя → кабель → муфта нижняя -->
  <use href="#ugo-mufta" x="65" y="96"/>
  <line x1="65" y1="101" x2="65" y2="221" stroke="black" stroke-width="0.5"/>
  <g transform="translate(65, 226) scale(1, -1)">
    <use href="#ugo-mufta"/>
  </g>

  <!-- Кабель лампы 1: муфта верхняя → кабель → муфта нижняя -->
  <use href="#ugo-mufta" x="115" y="96"/>
  <line x1="115" y1="101" x2="115" y2="221" stroke="black" stroke-width="0.5"/>
  <g transform="translate(115, 226) scale(1, -1)">
    <use href="#ugo-mufta"/>
  </g>

  <!-- Кабель лампы 2: муфта верхняя → кабель → муфта нижняя -->
  <use href="#ugo-mufta" x="165" y="96"/>
  <line x1="165" y1="101" x2="165" y2="221" stroke="black" stroke-width="0.5"/>
  <g transform="translate(165, 226) scale(1, -1)">
    <use href="#ugo-mufta"/>
  </g>

  <!-- N (нейтраль) — синий -->
  <g stroke="#0000CC" stroke-width="0.5">
    <!-- Сверху: N шина → вниз → диагональ 1:2 в верхнюю муфту -->
    <line x1="70" y1="21" x2="70" y2="86"/>
    <line x1="70" y1="86" x2="65" y2="96"/>
    <!-- Снизу генератора: нижняя муфта → диагональ → внутри корпуса → генератор -->
    <line x1="65" y1="226" x2="55" y2="236"/>
    <line x1="55" y1="236" x2="55" y2="261"/>
    <line x1="55" y1="261" x2="65" y2="261"/>
    <line x1="65" y1="261" x2="65" y2="256"/>
    <!-- Лампа сверху: N шина → вниз → диагональ 1:2 в верхнюю муфту -->
    <line x1="120" y1="21" x2="120" y2="86"/>
    <line x1="120" y1="86" x2="115" y2="96"/>
    <!-- Лампа 1 снизу: нижняя муфта → диагональ 1:1 → вниз → лампа -->
    <line x1="115" y1="226" x2="105" y2="236"/>
    <line x1="105" y1="236" x2="105" y2="256"/>
    <line x1="105" y1="256" x2="115" y2="256"/>
    <!-- Лампа 2 сверху: N шина → вниз → диагональ 1:2 в верхнюю муфту -->
    <line x1="170" y1="21" x2="170" y2="86"/>
    <line x1="170" y1="86" x2="165" y2="96"/>
    <!-- Лампа 2 снизу: нижняя муфта → диагональ 1:1 → вниз → лампа -->
    <line x1="165" y1="226" x2="155" y2="236"/>
    <line x1="155" y1="236" x2="155" y2="256"/>
    <line x1="155" y1="256" x2="165" y2="256"/>
  </g>



  <!-- PE (защитное заземление) — жёлто-зелёный -->
  <g stroke-width="0.7">
    <!-- Зелёная основа -->
    <!-- Генератор сверху: муфта → диагональ 1:1 → вверх к PE шине -->
    <line x1="65" y1="96" x2="75" y2="86" stroke="#228B22"/>
    <line x1="75" y1="86" x2="75" y2="26" stroke="#228B22"/>
    <!-- Генератор снизу: муфта → диагональ 1:1 → правая стенка корпуса -->
    <line x1="65" y1="226" x2="75" y2="236" stroke="#228B22"/>
    <!-- Лампа сверху: PE шина → вниз → диагональ 1:1 → верхняя муфта -->
    <line x1="125" y1="26" x2="125" y2="86" stroke="#228B22"/>
    <line x1="125" y1="86" x2="115" y2="96" stroke="#228B22"/>
    <!-- Лампа 1 снизу: нижняя муфта → диагональ 1:1 → правая стенка корпуса -->
    <line x1="115" y1="226" x2="125" y2="236" stroke="#228B22"/>
    <!-- Лампа 2 сверху: PE шина → вниз → диагональ 1:1 → верхняя муфта -->
    <line x1="175" y1="26" x2="175" y2="86" stroke="#228B22"/>
    <line x1="175" y1="86" x2="165" y2="96" stroke="#228B22"/>
    <!-- Лампа 2 снизу: нижняя муфта → диагональ 1:1 → правая стенка корпуса -->
    <line x1="165" y1="226" x2="175" y2="236" stroke="#228B22"/>
    <!-- Перемычка PE → N -->
    <line x1="215" y1="26" x2="215" y2="21" stroke="#228B22"/>
    <!-- Заземлитель: PE шина → вниз -->
    <line x1="215" y1="26" x2="215" y2="236" stroke="#228B22"/>
    <!-- Жёлтый пунктир поверх -->
    <line x1="65" y1="96" x2="75" y2="86" stroke="#FFD700" stroke-dasharray="2,2"/>
    <line x1="75" y1="86" x2="75" y2="26" stroke="#FFD700" stroke-dasharray="2,2"/>
    <line x1="65" y1="226" x2="75" y2="236" stroke="#FFD700" stroke-dasharray="2,2"/>
    <line x1="125" y1="26" x2="125" y2="86" stroke="#FFD700" stroke-dasharray="2,2"/>
    <line x1="125" y1="86" x2="115" y2="96" stroke="#FFD700" stroke-dasharray="2,2"/>
    <line x1="115" y1="226" x2="125" y2="236" stroke="#FFD700" stroke-dasharray="2,2"/>
    <line x1="175" y1="26" x2="175" y2="86" stroke="#FFD700" stroke-dasharray="2,2"/>
    <line x1="175" y1="86" x2="165" y2="96" stroke="#FFD700" stroke-dasharray="2,2"/>
    <line x1="165" y1="226" x2="175" y2="236" stroke="#FFD700" stroke-dasharray="2,2"/>
    <line x1="215" y1="26" x2="215" y2="21" stroke="#FFD700" stroke-dasharray="2,2"/>
    <line x1="215" y1="26" x2="215" y2="236" stroke="#FFD700" stroke-dasharray="2,2"/>
  </g>
  <!-- Узлы PE -->
  <use href="#ugo-node" x="75" y="236"/>
  <use href="#ugo-node" x="75" y="26"/>
  <use href="#ugo-node" x="125" y="26"/>
  <use href="#ugo-node" x="125" y="236"/>
  <use href="#ugo-node" x="175" y="26"/>
  <use href="#ugo-node" x="175" y="236"/>
  <use href="#ugo-node" x="215" y="26"/>
  <use href="#ugo-node" x="215" y="101"/>

  <!-- Узлы на L шине -->
  <use href="#ugo-node" x="65" y="16"/>
  <use href="#ugo-node" x="115" y="16"/>
  <use href="#ugo-node" x="165" y="16"/>
  <!-- Узлы на N шине -->
  <use href="#ugo-node" x="70" y="21"/>
  <use href="#ugo-node" x="120" y="21"/>
  <use href="#ugo-node" x="170" y="21"/>
  <use href="#ugo-node" x="215" y="21"/>

  <!-- Размещение УГО на схеме -->
  <use href="#ugo-generator" x="65" y="236"/>
  <use href="#ugo-lamp" x="115" y="236"/>
  <use href="#ugo-lamp" x="165" y="236"/>
  <use href="#ugo-ground" x="215" y="236"/>

  <!-- Обозначения (ГОСТ 2.710-81) -->
  <g font-family="sans-serif" font-size="2.5" fill="black">
    <!-- Шины -->
    <text x="57" y="17.5" text-anchor="end">L</text>
    <text x="57" y="22.5" text-anchor="end">N</text>
    <text x="57" y="27.5" text-anchor="end">PE</text>
    <!-- Генератор (x=65) -->
    <text x="58" y="48" text-anchor="end">QF1</text>
    <text x="58" y="111" text-anchor="end">W1</text>
    <text x="52" y="225">G</text>
    <!-- Лампа 1 (x=115) -->
    <text x="108" y="48" text-anchor="end">QF2</text>
    <text x="108" y="73" text-anchor="end">QS1</text>
    <text x="108" y="111" text-anchor="end">W2</text>
    <text x="102" y="225">EL1</text>
    <!-- Лампа 2 (x=165) -->
    <text x="158" y="48" text-anchor="end">QF3</text>
    <text x="158" y="73" text-anchor="end">QS2</text>
    <text x="158" y="111" text-anchor="end">W3</text>
    <text x="152" y="225">EL2</text>
  </g>

  <!-- Таблица УГО, x=230–415, y=6–236 (совпадает с рамкой сверху/справа, с надписью снизу/слева) -->
  <!-- Столбцы: Обозначение(40) | Наименование(100) | ГОСТ(45) -->
  <!-- Строки: заголовок 10мм, шапка 5мм, 12×15мм, последняя (PEN) 35мм -->
  <g stroke="black" stroke-width="0.3" font-family="sans-serif">
    <!-- Контур -->
    <rect x="230" y="6" width="185" height="230" fill="none"/>
    <!-- Вертикальные разделители -->
    <line x1="270" y1="16" x2="270" y2="236"/>
    <line x1="370" y1="16" x2="370" y2="236"/>
    <!-- Горизонтали -->
    <line x1="230" y1="16" x2="415" y2="16"/>
    <line x1="230" y1="21" x2="415" y2="21"/>
    <line x1="230" y1="36" x2="415" y2="36"/>
    <line x1="230" y1="51" x2="415" y2="51"/>
    <line x1="230" y1="66" x2="415" y2="66"/>
    <line x1="230" y1="81" x2="415" y2="81"/>
    <line x1="230" y1="96" x2="415" y2="96"/>
    <line x1="230" y1="111" x2="415" y2="111"/>
    <line x1="230" y1="126" x2="415" y2="126"/>
    <line x1="230" y1="141" x2="415" y2="141"/>
    <line x1="230" y1="156" x2="415" y2="156"/>
    <line x1="230" y1="171" x2="415" y2="171"/>
    <line x1="230" y1="186" x2="415" y2="186"/>
    <line x1="230" y1="201" x2="415" y2="201"/>

    <!-- Заголовок (6–16) -->
    <text x="322.5" y="13" font-size="3.5" fill="black" stroke="none" font-weight="bold" text-anchor="middle">Условные графические обозначения</text>

    <!-- Шапка (16–21) -->
    <rect x="230" y="16" width="185" height="5" fill="none"/>
    <g font-size="2.5" fill="black" stroke="none" font-weight="bold">
      <text x="250" y="20" text-anchor="middle">Обозначение</text>
      <text x="320" y="20" text-anchor="middle">Наименование</text>
      <text x="392.5" y="20" text-anchor="middle">ГОСТ</text>
    </g>

    <!-- 1. Заземлитель (21–36, 15мм) -->
    <use href="#ugo-ground" x="250" y="25"/>
    <text x="272" y="30" font-size="2.5" fill="black" stroke="none">Заземлитель</text>
    <text x="392.5" y="30" font-size="2" fill="black" stroke="none" text-anchor="middle">ГОСТ 2.751</text>

    <!-- 2. Контакт н.р. (36–51), повёрнут –90° -->
    <g transform="translate(250, 45) rotate(-90)"><use href="#ugo-contact" y="-10"/></g>
    <text x="272" y="45" font-size="2.5" fill="black" stroke="none">Контакт нормально разомкнутый</text>
    <text x="392.5" y="45" font-size="2" fill="black" stroke="none" text-anchor="middle">ГОСТ 2.755</text>

    <!-- 3. Автоматический выключатель (51–66), повёрнут –90° -->
    <g transform="translate(250, 60) rotate(-90)"><use href="#ugo-breaker" y="-10"/></g>
    <text x="272" y="60" font-size="2.5" fill="black" stroke="none">Автоматический выключатель</text>
    <text x="392.5" y="60" font-size="2" fill="black" stroke="none" text-anchor="middle">ГОСТ 2.755</text>

    <!-- 4. Генератор однофазный (66–81), повёрнут –90° -->
    <g transform="translate(250, 75) rotate(-90)"><use href="#ugo-generator" y="-10"/></g>
    <text x="272" y="75" font-size="2.5" fill="black" stroke="none">Обмотка генератора однофазная</text>
    <text x="392.5" y="75" font-size="2" fill="black" stroke="none" text-anchor="middle">ГОСТ 2.723</text>

    <!-- 5. Лампа накаливания (81–96), повёрнут –90° -->
    <g transform="translate(250, 90) rotate(-90)"><use href="#ugo-lamp" y="-10"/></g>
    <text x="272" y="90" font-size="2.5" fill="black" stroke="none">Лампа накаливания осветительная</text>
    <text x="392.5" y="90" font-size="2" fill="black" stroke="none" text-anchor="middle">ГОСТ 2.732</text>

    <!-- 6. Корпус (96–111) -->
    <rect x="242" y="100" width="16" height="10" fill="none" stroke="black" stroke-dasharray="2,1"/>
    <text x="272" y="105" font-size="2.5" fill="black" stroke="none">Корпус (оболочка)</text>
    <text x="392.5" y="105" font-size="2" fill="black" stroke="none" text-anchor="middle">ГОСТ 2.721</text>

    <!-- 7. Муфта (111–126) -->
    <use href="#ugo-mufta" x="250" y="115"/>
    <text x="272" y="120" font-size="2.5" fill="black" stroke="none">Муфта (кабельный разветвитель)</text>
    <text x="392.5" y="120" font-size="2" fill="black" stroke="none" text-anchor="middle">—</text>

    <!-- 8. Узел (126–141) -->
    <use href="#ugo-node" x="250" y="135"/>
    <text x="272" y="135" font-size="2.5" fill="black" stroke="none">Узел (точка соединения)</text>
    <text x="392.5" y="135" font-size="2" fill="black" stroke="none" text-anchor="middle">ГОСТ 2.721</text>

    <!-- 9. Кабель (141–156) -->
    <line x1="240" y1="150" x2="260" y2="150" stroke="black" stroke-width="0.5"/>
    <text x="272" y="150" font-size="2.5" fill="black" stroke="none">Кабель</text>
    <text x="392.5" y="150" font-size="2" fill="black" stroke="none" text-anchor="middle">ГОСТ Р 50462</text>

    <!-- 10. L — фазный (156–171) -->
    <line x1="240" y1="165" x2="260" y2="165" stroke="#8B4513" stroke-width="0.5"/>
    <text x="272" y="165" font-size="2.5" fill="black" stroke="none">L — фазный проводник</text>
    <text x="392.5" y="165" font-size="2" fill="black" stroke="none" text-anchor="middle">ГОСТ Р 50462</text>

    <!-- 11. N — нейтральный (171–186) -->
    <line x1="240" y1="180" x2="260" y2="180" stroke="#0000CC" stroke-width="0.5"/>
    <text x="272" y="180" font-size="2.5" fill="black" stroke="none">N — нейтральный проводник</text>
    <text x="392.5" y="180" font-size="2" fill="black" stroke="none" text-anchor="middle">ГОСТ Р 50462</text>

    <!-- 12. PE — защитный (186–201) -->
    <line x1="240" y1="195" x2="260" y2="195" stroke="#228B22" stroke-width="0.7"/>
    <line x1="240" y1="195" x2="260" y2="195" stroke="#FFD700" stroke-width="0.7" stroke-dasharray="2,2"/>
    <text x="272" y="195" font-size="2.5" fill="black" stroke="none">PE — защитный проводник</text>
    <text x="392.5" y="195" font-size="2" fill="black" stroke="none" text-anchor="middle">ГОСТ Р 50462</text>

    <!-- 13. PEN — совмещённый (201–236, 35мм — профицит) -->
    <line x1="240" y1="210" x2="260" y2="210" stroke="#228B22" stroke-width="0.7" stroke-dasharray="2,4" stroke-dashoffset="0"/>
    <line x1="240" y1="210" x2="260" y2="210" stroke="#FFD700" stroke-width="0.7" stroke-dasharray="2,4" stroke-dashoffset="4"/>
    <line x1="240" y1="210" x2="260" y2="210" stroke="#0000CC" stroke-width="0.7" stroke-dasharray="2,4" stroke-dashoffset="2"/>
    <text x="272" y="210" font-size="2.5" fill="black" stroke="none">PEN — совмещённый проводник</text>
    <text x="392.5" y="210" font-size="2" fill="black" stroke="none" text-anchor="middle">ГОСТ Р 50462</text>
  </g>

</svg>
