<svg xmlns="http://www.w3.org/2000/svg" width="420mm" height="297mm" viewBox="0 0 420 297">
  <rect width="420" height="297" fill="white"/>

  <defs>
    <!-- Миллиметровка -->
    <pattern id="mm1" width="1" height="1" patternUnits="userSpaceOnUse">
      <line x1="0" y1="0" x2="0" y2="1" stroke="#c8d8e8" stroke-width="0.1"/>
      <line x1="0" y1="0" x2="1" y2="0" stroke="#c8d8e8" stroke-width="0.1"/>
    </pattern>
    <pattern id="mm5" width="5" height="5" patternUnits="userSpaceOnUse">
      <rect width="5" height="5" fill="url(#mm1)"/>
      <line x1="0" y1="0" x2="0" y2="5" stroke="#90b0d0" stroke-width="0.15"/>
      <line x1="0" y1="0" x2="5" y2="0" stroke="#90b0d0" stroke-width="0.15"/>
    </pattern>

    <!-- УГО: Заземлитель (однополюсный), ГОСТ 2.751 -->
    <symbol id="ugo-ground" overflow="visible">
      <g stroke="black" stroke-width="0.5">
        <line x1="0" y1="0" x2="0" y2="5"/>
        <line x1="-4" y1="5" x2="4" y2="5"/>
        <line x1="-2.5" y1="7" x2="2.5" y2="7"/>
        <line x1="-1" y1="9" x2="1" y2="9"/>
      </g>
    </symbol>

    <!-- УГО: Обмотка генератора (двухполюсная), ГОСТ 2.723, d=10мм -->
    <symbol id="ugo-generator" overflow="visible">
      <g stroke="black" stroke-width="0.5" fill="none">
        <line x1="0" y1="0" x2="0" y2="5"/>
        <circle cx="0" cy="10" r="5"/>
        <path d="M-3,10 C-3,7.5 0,7.5 0,10 S3,12.5 3,10" stroke-width="0.3"/>
        <line x1="0" y1="15" x2="0" y2="20"/>
      </g>
    </symbol>

    <!-- УГО: Лампочка (двухполюсная), ГОСТ 2.732, d=10мм -->
    <symbol id="ugo-lamp" overflow="visible">
      <g stroke="black" stroke-width="0.5" fill="none">
        <line x1="0" y1="0" x2="0" y2="5"/>
        <circle cx="0" cy="10" r="5"/>
        <line x1="-3.5" y1="6.5" x2="3.5" y2="13.5"/>
        <line x1="3.5" y1="6.5" x2="-3.5" y2="13.5"/>
        <line x1="0" y1="15" x2="0" y2="20"/>
      </g>
    </symbol>
  </defs>

  <rect width="420" height="297" fill="url(#mm5)"/>

  <!-- Корпуса (элемент схемы, не часть УГО) -->
  <rect x="55" y="45" width="20" height="30" fill="none" stroke="black" stroke-width="0.3" stroke-dasharray="2,1"/>
  <rect x="85" y="45" width="20" height="30" fill="none" stroke="black" stroke-width="0.3" stroke-dasharray="2,1"/>

  <!-- Провода (замкнутая цепь: генератор — лампочка) -->
  <g stroke="black" stroke-width="0.5">
    <line x1="65" y1="50" x2="95" y2="50"/>
    <line x1="65" y1="80" x2="95" y2="80"/>
    <!-- Вертикальные соединения: от нижних полюсов до нижнего провода -->
    <line x1="65" y1="70" x2="65" y2="80"/>
    <line x1="95" y1="70" x2="95" y2="80"/>
  </g>

  <!-- Точка на пересечении (95,80): провод + ответвление заземлителя -->
  <circle cx="95" cy="80" r="0.7" fill="black" stroke="none"/>

  <!-- PE-провод: корпуса → заземлитель -->
  <g stroke="black" stroke-width="0.5">
    <line x1="75" y1="75" x2="85" y2="75"/>
    <line x1="80" y1="75" x2="80" y2="85"/>
  </g>
  <!-- Точки: PE-провод × грани корпусов + Т-соединение -->
  <circle cx="75" cy="75" r="0.7" fill="black" stroke="none"/>
  <circle cx="80" cy="75" r="0.7" fill="black" stroke="none"/>
  <circle cx="85" cy="75" r="0.7" fill="black" stroke="none"/>

  <!-- Размещение УГО на схеме -->
  <use href="#ugo-generator" x="95" y="50"/>
  <use href="#ugo-lamp" x="65" y="50"/>
  <use href="#ugo-ground" x="95" y="80"/>
  <use href="#ugo-ground" x="80" y="85"/>

  <!-- Таблица УГО (перечень условных графических обозначений) -->
  <g transform="translate(50, 110)" stroke="black" stroke-width="0.3" font-family="sans-serif">
    <!-- Заголовок -->
    <text x="60" y="-3" font-size="3.5" font-weight="bold" text-anchor="middle" stroke="none" fill="black">Условные графические обозначения</text>

    <!-- Шапка таблицы -->
    <rect x="0" y="0" width="120" height="10" fill="#eee" stroke="black"/>
    <text x="20" y="7" font-size="2.8" text-anchor="middle" stroke="none" fill="black" font-weight="bold">Обозначение</text>
    <text x="70" y="7" font-size="2.8" text-anchor="middle" stroke="none" fill="black" font-weight="bold">Наименование</text>
    <text x="110" y="7" font-size="2.8" text-anchor="middle" stroke="none" fill="black" font-weight="bold">ГОСТ</text>
    <line x1="40" y1="0" x2="40" y2="10"/>
    <line x1="100" y1="0" x2="100" y2="10"/>

    <!-- Строка 1: Заземлитель (символ 9мм, строка 20мм) -->
    <rect x="0" y="10" width="120" height="20" fill="none" stroke="black"/>
    <line x1="40" y1="10" x2="40" y2="30"/>
    <line x1="100" y1="10" x2="100" y2="30"/>
    <use href="#ugo-ground" x="20" y="15"/>
    <text x="70" y="22" font-size="2.5" text-anchor="middle" stroke="none" fill="black">Заземлитель</text>
    <text x="110" y="22" font-size="2" text-anchor="middle" stroke="none" fill="black">ГОСТ 2.751</text>

    <!-- Строка 2: Обмотка генератора (символ 20мм, строка 30мм) -->
    <rect x="0" y="30" width="120" height="30" fill="none" stroke="black"/>
    <line x1="40" y1="30" x2="40" y2="60"/>
    <line x1="100" y1="30" x2="100" y2="60"/>
    <use href="#ugo-generator" x="20" y="35"/>
    <text x="70" y="45" font-size="2.5" text-anchor="middle" stroke="none" fill="black">Обмотка генератора</text>
    <text x="70" y="49" font-size="2.5" text-anchor="middle" stroke="none" fill="black">однофазная</text>
    <text x="110" y="47" font-size="2" text-anchor="middle" stroke="none" fill="black">ГОСТ 2.723</text>

    <!-- Строка 3: Лампочка (символ 20мм, строка 30мм) -->
    <rect x="0" y="60" width="120" height="30" fill="none" stroke="black"/>
    <line x1="40" y1="60" x2="40" y2="90"/>
    <line x1="100" y1="60" x2="100" y2="90"/>
    <use href="#ugo-lamp" x="20" y="65"/>
    <text x="70" y="75" font-size="2.5" text-anchor="middle" stroke="none" fill="black">Лампа накаливания</text>
    <text x="70" y="79" font-size="2.5" text-anchor="middle" stroke="none" fill="black">осветительная</text>
    <text x="110" y="77" font-size="2" text-anchor="middle" stroke="none" fill="black">ГОСТ 2.732</text>
  </g>

</svg>
