<svg xmlns="http://www.w3.org/2000/svg" width="420mm" height="297mm" viewBox="0 0 420 297">
  <rect width="420" height="297" fill="white"/>

  <defs>
    <!-- Миллиметровка -->
    <pattern id="mm1" width="1" height="1" patternUnits="userSpaceOnUse" y="1">
      <line x1="0" y1="0" x2="0" y2="1" stroke="#c8d8e8" stroke-width="0.1"/>
      <line x1="0" y1="0" x2="1" y2="0" stroke="#c8d8e8" stroke-width="0.1"/>
    </pattern>
    <pattern id="mm5" width="5" height="5" patternUnits="userSpaceOnUse" y="1">
      <rect width="5" height="5" fill="url(#mm1)"/>
      <line x1="0" y1="0" x2="0" y2="5" stroke="#90b0d0" stroke-width="0.15"/>
      <line x1="0" y1="0" x2="5" y2="0" stroke="#90b0d0" stroke-width="0.15"/>
    </pattern>

    <!-- УГО: Узел (точка соединения), ГОСТ 2.721 -->
    <symbol id="ugo-node" overflow="visible">
      <rect x="-5" y="-5" width="10" height="10" fill="none" stroke="red" stroke-width="0.15" stroke-dasharray="1,1" opacity="0.5"/>
      <circle cx="0" cy="0" r="0.7" fill="black" stroke="none"/>
    </symbol>

    <!-- УГО: Заземлитель (однополюсный), ГОСТ 2.751 -->
    <symbol id="ugo-ground" overflow="visible">
      <rect x="-5" y="0" width="10" height="10" fill="none" stroke="red" stroke-width="0.15" stroke-dasharray="1,1" opacity="0.5"/>
      <g stroke="black" stroke-width="0.5">
        <line x1="0" y1="0" x2="0" y2="5"/>
        <line x1="-4" y1="5" x2="4" y2="5"/>
        <line x1="-2.5" y1="7" x2="2.5" y2="7"/>
        <line x1="-1" y1="9" x2="1" y2="9"/>
      </g>
    </symbol>

    <!-- УГО: Контакт нормально разомкнутый, ГОСТ 2.755, выводы 5мм + зазор 10мм = 20мм, угол 30° -->
    <symbol id="ugo-contact" overflow="visible">
      <rect x="-5" y="0" width="5" height="20" fill="none" stroke="red" stroke-width="0.15" stroke-dasharray="1,1" opacity="0.5"/>
      <g stroke="black" stroke-width="0.5" fill="none">
        <line x1="0" y1="0" x2="0" y2="8"/>
        <line x1="0" y1="15" x2="-5" y2="6"/>
        <line x1="0" y1="15" x2="0" y2="20"/>
      </g>
    </symbol>

    <!-- УГО: Автоматический выключатель, ГОСТ 2.755 (п.5 табл.1 — прямоугольник на рычаге) -->
    <symbol id="ugo-breaker" overflow="visible">
      <rect x="-5" y="0" width="5" height="20" fill="none" stroke="red" stroke-width="0.15" stroke-dasharray="1,1" opacity="0.5"/>
      <g stroke="black" stroke-width="0.5" fill="none">
        <line x1="0" y1="0" x2="0" y2="7"/>
        <line x1="-1" y1="6" x2="1" y2="8"/>
        <line x1="-1" y1="8" x2="1" y2="6"/>
        <line x1="0" y1="15" x2="-5" y2="6"/>
        <rect x="-2" y="-1.5" width="2" height="3" fill="none" stroke="black" stroke-width="0.5" transform="translate(-2.5, 10.5) rotate(-30)"/>
        <line x1="0" y1="15" x2="0" y2="20"/>
      </g>
    </symbol>

    <!-- УГО: Обмотка генератора (двухполюсная), ГОСТ 2.723, d=10мм -->
    <symbol id="ugo-generator" overflow="visible">
      <rect x="-5" y="0" width="10" height="20" fill="none" stroke="red" stroke-width="0.15" stroke-dasharray="1,1" opacity="0.5"/>
      <g stroke="black" stroke-width="0.5" fill="none">
        <line x1="0" y1="0" x2="0" y2="5"/>
        <circle cx="0" cy="10" r="5"/>
        <path d="M-3,10 C-3,7.5 0,7.5 0,10 S3,12.5 3,10" stroke-width="0.3"/>
        <line x1="0" y1="15" x2="0" y2="20"/>
      </g>
    </symbol>

    <!-- УГО: Лампочка (двухполюсная), ГОСТ 2.732, d=10мм -->
    <symbol id="ugo-lamp" overflow="visible">
      <rect x="-5" y="0" width="10" height="20" fill="none" stroke="red" stroke-width="0.15" stroke-dasharray="1,1" opacity="0.5"/>
      <g stroke="black" stroke-width="0.5" fill="none">
        <line x1="0" y1="0" x2="0" y2="5"/>
        <circle cx="0" cy="10" r="5"/>
        <line x1="-3.5" y1="6.5" x2="3.5" y2="13.5"/>
        <line x1="3.5" y1="6.5" x2="-3.5" y2="13.5"/>
        <line x1="0" y1="15" x2="0" y2="20"/>
      </g>
    </symbol>

    <!-- УГО: Муфта (кабельный разветвитель), 10×5мм -->
    <symbol id="ugo-mufta" overflow="visible">
      <rect x="-5" y="0" width="10" height="5" fill="none" stroke="red" stroke-width="0.15" stroke-dasharray="1,1" opacity="0.5"/>
      <polygon points="-3,0 3,0 0,5" stroke="black" stroke-width="0.5" fill="none"/>
    </symbol>
  </defs>

  <rect x="21" y="6" width="393" height="285" fill="url(#mm5)"/>

  <!-- Рамка ГОСТ 2.104-2006, A3 альбомная -->
  <rect x="20.5" y="5.5" width="394" height="286" fill="none" stroke="black" stroke-width="1"/>

  <!-- Основная надпись (форма 1), ГОСТ 2.104-2006, 185×55мм -->
  <g stroke="black" stroke-width="0.3" font-family="sans-serif" fill="none">
    <!-- Внешний контур -->
    <rect x="230" y="236" width="185" height="55" stroke-width="0.7"/>

    <!-- Горизонтальные линии -->
    <line x1="230" y1="241" x2="295" y2="241"/>
    <line x1="230" y1="246" x2="295" y2="246"/>
    <line x1="230" y1="251" x2="415" y2="251"/>
    <line x1="230" y1="256" x2="415" y2="256"/>
    <line x1="230" y1="271" x2="415" y2="271"/>
    <line x1="230" y1="286" x2="415" y2="286"/>

    <!-- Вертикальные: левые колонки [7|10|23|15|10]=65мм -->
    <line x1="237" y1="236" x2="237" y2="291"/>
    <line x1="247" y1="236" x2="247" y2="291"/>
    <line x1="270" y1="236" x2="270" y2="291"/>
    <line x1="285" y1="236" x2="285" y2="291"/>
    <!-- Главный разделитель лево 65мм / право 120мм -->
    <line x1="295" y1="236" x2="295" y2="291" stroke-width="0.7"/>

    <!-- Правая область: разделитель обозначения (70мм от x=295) -->
    <line x1="365" y1="256" x2="365" y2="286"/>
    <!-- Ячейки Лит. (y=251-256) -->
    <line x1="300" y1="251" x2="300" y2="256"/>
    <line x1="305" y1="251" x2="305" y2="256"/>
    <line x1="310" y1="251" x2="310" y2="256"/>
    <!-- Нижняя строка: правая часть (y=286-291) [70|10|15|15|10] -->
    <line x1="365" y1="286" x2="365" y2="291"/>
    <line x1="375" y1="286" x2="375" y2="291"/>
    <line x1="390" y1="286" x2="390" y2="291"/>
    <line x1="405" y1="286" x2="405" y2="291"/>

    <!-- Роли (колонка 2: x=237-247) -->
    <g font-size="2.2" fill="black" stroke="none">
      <text x="238" y="240">Разраб.</text>
      <text x="238" y="245">Пров.</text>
      <text x="238" y="255">Утв.</text>
    </g>
    <!-- Заголовки колонок изменений (нижняя строка) -->
    <g font-size="1.8" fill="black" stroke="none">
      <text x="231" y="290">Изм.</text>
      <text x="238" y="290">Лист</text>
      <text x="248" y="290">№ докум.</text>
      <text x="271" y="290">Подп.</text>
      <text x="286" y="290">Дата</text>
    </g>

    <!-- Наименование (графа 1): x=295-415, y=236-251, 120×15мм -->
    <text x="355" y="244" font-size="5" fill="black" stroke="none" text-anchor="middle" font-weight="bold">Однолинейная схема</text>
    <text x="355" y="250" font-size="5" fill="black" stroke="none" text-anchor="middle" font-weight="bold">электроснабжения</text>

    <!-- Полоска Лит./Масса/Масштаб (y=251-256) -->
    <g font-size="1.8" fill="#666" stroke="none">
      <text x="296" y="255">Лит.</text>
      <text x="391" y="255">Масса</text>
      <text x="401" y="255">Масштаб</text>
    </g>

    <!-- Нижняя строка: правая часть — метки -->
    <g font-size="1.5" fill="#666" stroke="none">
      <text x="296" y="288">Организация</text>
      <text x="366" y="288">Масшт.</text>
      <text x="376" y="288">Лист</text>
      <text x="391" y="288">Листов</text>
      <text x="406" y="288">Масса</text>
    </g>
    <!-- Данные: номер листа -->
    <text x="382.5" y="290.5" font-size="3" fill="black" stroke="none" text-anchor="middle">1</text>
  </g>

  <!-- Корпус РУ (шины + АВ + муфты) -->
  <rect x="50" y="11" width="175" height="90" fill="none" stroke="black" stroke-width="0.3" stroke-dasharray="2,1"/>

  <!-- Питающие проводники (горизонтальные, внутри корпуса) -->
  <line x1="60" y1="16" x2="220" y2="16" stroke="#8B4513" stroke-width="0.5"/>
  <line x1="60" y1="21" x2="220" y2="21" stroke="#0000CC" stroke-width="0.5"/>
  <g stroke-width="0.7">
    <line x1="60" y1="26" x2="220" y2="26" stroke="#228B22"/>
    <line x1="60" y1="26" x2="220" y2="26" stroke="#FFD700" stroke-dasharray="2,2"/>
  </g>

  <!-- Корпуса приёмников -->
  <rect x="50" y="221" width="25" height="45" fill="none" stroke="black" stroke-width="0.3" stroke-dasharray="2,1"/>
  <rect x="100" y="221" width="25" height="45" fill="none" stroke="black" stroke-width="0.3" stroke-dasharray="2,1"/>
  <rect x="150" y="221" width="25" height="45" fill="none" stroke="black" stroke-width="0.3" stroke-dasharray="2,1"/>

  <!-- L (фаза) — коричневый -->
  <g stroke="#8B4513" stroke-width="0.5">
    <!-- Генератор: АВ от L шины -->
    <line x1="65" y1="16" x2="65" y2="36"/>
    <!-- Генератор: АВ → муфта -->
    <line x1="65" y1="56" x2="65" y2="96"/>
    <!-- Генератор: нижняя муфта → генератор -->
    <line x1="65" y1="226" x2="65" y2="236"/>
    <!-- Лампа: АВ от L шины -->
    <line x1="115" y1="16" x2="115" y2="36"/>
    <!-- Лампа: АВ → контакт -->
    <line x1="115" y1="56" x2="115" y2="61"/>
    <!-- Лампа: контакт → муфта -->
    <line x1="115" y1="81" x2="115" y2="96"/>
    <!-- Лампа: нижняя муфта → лампа -->
    <line x1="115" y1="226" x2="115" y2="236"/>
    <!-- Лампа 2: АВ от L шины -->
    <line x1="165" y1="16" x2="165" y2="36"/>
    <!-- Лампа 2: АВ → контакт -->
    <line x1="165" y1="56" x2="165" y2="61"/>
    <!-- Лампа 2: контакт → муфта -->
    <line x1="165" y1="81" x2="165" y2="96"/>
    <!-- Лампа 2: нижняя муфта → лампа -->
    <line x1="165" y1="226" x2="165" y2="236"/>
  </g>
  <use href="#ugo-breaker" x="65" y="36"/>
  <use href="#ugo-breaker" x="115" y="36"/>
  <use href="#ugo-contact" x="115" y="61"/>
  <use href="#ugo-breaker" x="165" y="36"/>
  <use href="#ugo-contact" x="165" y="61"/>

  <!-- Кабель генератора: муфта верхняя → кабель → муфта нижняя -->
  <use href="#ugo-mufta" x="65" y="96"/>
  <line x1="65" y1="101" x2="65" y2="221" stroke="black" stroke-width="0.5"/>
  <g transform="translate(65, 226) scale(1, -1)">
    <use href="#ugo-mufta"/>
  </g>

  <!-- Кабель лампы 1: муфта верхняя → кабель → муфта нижняя -->
  <use href="#ugo-mufta" x="115" y="96"/>
  <line x1="115" y1="101" x2="115" y2="221" stroke="black" stroke-width="0.5"/>
  <g transform="translate(115, 226) scale(1, -1)">
    <use href="#ugo-mufta"/>
  </g>

  <!-- Кабель лампы 2: муфта верхняя → кабель → муфта нижняя -->
  <use href="#ugo-mufta" x="165" y="96"/>
  <line x1="165" y1="101" x2="165" y2="221" stroke="black" stroke-width="0.5"/>
  <g transform="translate(165, 226) scale(1, -1)">
    <use href="#ugo-mufta"/>
  </g>

  <!-- N (нейтраль) — синий -->
  <g stroke="#0000CC" stroke-width="0.5">
    <!-- Сверху: N шина → вниз → диагональ 1:2 в верхнюю муфту -->
    <line x1="70" y1="21" x2="70" y2="86"/>
    <line x1="70" y1="86" x2="65" y2="96"/>
    <!-- Снизу генератора: нижняя муфта → диагональ → внутри корпуса → генератор -->
    <line x1="65" y1="226" x2="55" y2="236"/>
    <line x1="55" y1="236" x2="55" y2="261"/>
    <line x1="55" y1="261" x2="65" y2="261"/>
    <line x1="65" y1="261" x2="65" y2="256"/>
    <!-- Лампа сверху: N шина → вниз → диагональ 1:2 в верхнюю муфту -->
    <line x1="120" y1="21" x2="120" y2="86"/>
    <line x1="120" y1="86" x2="115" y2="96"/>
    <!-- Лампа 1 снизу: нижняя муфта → диагональ 1:1 → вниз → лампа -->
    <line x1="115" y1="226" x2="105" y2="236"/>
    <line x1="105" y1="236" x2="105" y2="256"/>
    <line x1="105" y1="256" x2="115" y2="256"/>
    <!-- Лампа 2 сверху: N шина → вниз → диагональ 1:2 в верхнюю муфту -->
    <line x1="170" y1="21" x2="170" y2="86"/>
    <line x1="170" y1="86" x2="165" y2="96"/>
    <!-- Лампа 2 снизу: нижняя муфта → диагональ 1:1 → вниз → лампа -->
    <line x1="165" y1="226" x2="155" y2="236"/>
    <line x1="155" y1="236" x2="155" y2="256"/>
    <line x1="155" y1="256" x2="165" y2="256"/>
  </g>



  <!-- PE (защитное заземление) — жёлто-зелёный -->
  <g stroke-width="0.7">
    <!-- Зелёная основа -->
    <!-- Генератор сверху: муфта → диагональ 1:1 → вверх к PE шине -->
    <line x1="65" y1="96" x2="75" y2="86" stroke="#228B22"/>
    <line x1="75" y1="86" x2="75" y2="26" stroke="#228B22"/>
    <!-- Генератор снизу: муфта → диагональ 1:1 → правая стенка корпуса -->
    <line x1="65" y1="226" x2="75" y2="236" stroke="#228B22"/>
    <!-- Лампа сверху: PE шина → вниз → диагональ 1:1 → верхняя муфта -->
    <line x1="125" y1="26" x2="125" y2="86" stroke="#228B22"/>
    <line x1="125" y1="86" x2="115" y2="96" stroke="#228B22"/>
    <!-- Лампа 1 снизу: нижняя муфта → диагональ 1:1 → правая стенка корпуса -->
    <line x1="115" y1="226" x2="125" y2="236" stroke="#228B22"/>
    <!-- Лампа 2 сверху: PE шина → вниз → диагональ 1:1 → верхняя муфта -->
    <line x1="175" y1="26" x2="175" y2="86" stroke="#228B22"/>
    <line x1="175" y1="86" x2="165" y2="96" stroke="#228B22"/>
    <!-- Лампа 2 снизу: нижняя муфта → диагональ 1:1 → правая стенка корпуса -->
    <line x1="165" y1="226" x2="175" y2="236" stroke="#228B22"/>
    <!-- Перемычка PE → N -->
    <line x1="215" y1="26" x2="215" y2="21" stroke="#228B22"/>
    <!-- Заземлитель: PE шина → вниз -->
    <line x1="215" y1="26" x2="215" y2="236" stroke="#228B22"/>
    <!-- Жёлтый пунктир поверх -->
    <line x1="65" y1="96" x2="75" y2="86" stroke="#FFD700" stroke-dasharray="2,2"/>
    <line x1="75" y1="86" x2="75" y2="26" stroke="#FFD700" stroke-dasharray="2,2"/>
    <line x1="65" y1="226" x2="75" y2="236" stroke="#FFD700" stroke-dasharray="2,2"/>
    <line x1="125" y1="26" x2="125" y2="86" stroke="#FFD700" stroke-dasharray="2,2"/>
    <line x1="125" y1="86" x2="115" y2="96" stroke="#FFD700" stroke-dasharray="2,2"/>
    <line x1="115" y1="226" x2="125" y2="236" stroke="#FFD700" stroke-dasharray="2,2"/>
    <line x1="175" y1="26" x2="175" y2="86" stroke="#FFD700" stroke-dasharray="2,2"/>
    <line x1="175" y1="86" x2="165" y2="96" stroke="#FFD700" stroke-dasharray="2,2"/>
    <line x1="165" y1="226" x2="175" y2="236" stroke="#FFD700" stroke-dasharray="2,2"/>
    <line x1="215" y1="26" x2="215" y2="21" stroke="#FFD700" stroke-dasharray="2,2"/>
    <line x1="215" y1="26" x2="215" y2="236" stroke="#FFD700" stroke-dasharray="2,2"/>
  </g>
  <!-- Узлы PE -->
  <use href="#ugo-node" x="75" y="236"/>
  <use href="#ugo-node" x="75" y="26"/>
  <use href="#ugo-node" x="125" y="26"/>
  <use href="#ugo-node" x="125" y="236"/>
  <use href="#ugo-node" x="175" y="26"/>
  <use href="#ugo-node" x="175" y="236"/>
  <use href="#ugo-node" x="215" y="26"/>
  <use href="#ugo-node" x="215" y="101"/>

  <!-- Узлы на L шине -->
  <use href="#ugo-node" x="65" y="16"/>
  <use href="#ugo-node" x="115" y="16"/>
  <use href="#ugo-node" x="165" y="16"/>
  <!-- Узлы на N шине -->
  <use href="#ugo-node" x="70" y="21"/>
  <use href="#ugo-node" x="120" y="21"/>
  <use href="#ugo-node" x="170" y="21"/>
  <use href="#ugo-node" x="215" y="21"/>

  <!-- Размещение УГО на схеме -->
  <use href="#ugo-generator" x="65" y="236"/>
  <use href="#ugo-lamp" x="115" y="236"/>
  <use href="#ugo-lamp" x="165" y="236"/>
  <use href="#ugo-ground" x="215" y="236"/>

  <!-- Обозначения (ГОСТ 2.710-81) -->
  <g font-family="sans-serif" font-size="2.5" fill="black">
    <!-- Шины -->
    <text x="57" y="17.5" text-anchor="end">L</text>
    <text x="57" y="22.5" text-anchor="end">N</text>
    <text x="57" y="27.5" text-anchor="end">PE</text>
    <!-- Генератор (x=65) -->
    <text x="58" y="48" text-anchor="end">QF1</text>
    <text x="58" y="111" text-anchor="end">W1</text>
    <text x="52" y="225">G</text>
    <!-- Лампа 1 (x=115) -->
    <text x="108" y="48" text-anchor="end">QF2</text>
    <text x="108" y="73" text-anchor="end">QS1</text>
    <text x="108" y="111" text-anchor="end">W2</text>
    <text x="102" y="225">EL1</text>
    <!-- Лампа 2 (x=165) -->
    <text x="158" y="48" text-anchor="end">QF3</text>
    <text x="158" y="73" text-anchor="end">QS2</text>
    <text x="158" y="111" text-anchor="end">W3</text>
    <text x="152" y="225">EL2</text>
  </g>

  <!-- Таблица УГО, x=230–415, y=6–236 -->
  <!-- Столбцы: Обозначение(40) | Наименование(100) | ГОСТ(45) -->
  <!-- title 10, header 10, 6×20+contact 15+breaker 15+mufta 15, 5×10, empty 15 -->
  <g stroke="black" stroke-width="0.3" font-family="sans-serif">
    <rect x="230" y="6" width="185" height="230" fill="none"/>
    <line x1="270" y1="16" x2="270" y2="236"/>
    <line x1="370" y1="16" x2="370" y2="236"/>
    <line x1="230" y1="16" x2="415" y2="16"/>
    <line x1="230" y1="26" x2="415" y2="26"/>
    <line x1="230" y1="46" x2="415" y2="46"/>
    <line x1="230" y1="61" x2="415" y2="61"/>
    <line x1="230" y1="76" x2="415" y2="76"/>
    <line x1="230" y1="96" x2="415" y2="96"/>
    <line x1="230" y1="116" x2="415" y2="116"/>
    <line x1="230" y1="136" x2="415" y2="136"/>
    <line x1="230" y1="151" x2="415" y2="151"/>
    <line x1="230" y1="161" x2="415" y2="161"/>
    <line x1="230" y1="171" x2="415" y2="171"/>
    <line x1="230" y1="181" x2="415" y2="181"/>
    <line x1="230" y1="191" x2="415" y2="191"/>
    <line x1="230" y1="201" x2="415" y2="201"/>
    <line x1="230" y1="211" x2="415" y2="211"/>

    <!-- Заголовок (6–16, 10мм) -->
    <text x="322.5" y="13" font-size="3.5" fill="black" stroke="none" font-weight="bold" text-anchor="middle">Условные графические обозначения</text>

    <!-- Шапка (16–26, 10мм) -->
    <g font-size="2.5" fill="black" stroke="none" font-weight="bold">
      <text x="250" y="23" text-anchor="middle">Обозначение</text>
      <text x="320" y="23" text-anchor="middle">Наименование</text>
      <text x="392.5" y="23" text-anchor="middle">ГОСТ</text>
    </g>

    <!-- 1. Заземлитель (26–46, 20мм), VB 31–41 -->
    <use href="#ugo-ground" x="250" y="31"/>
    <text x="272" y="38" font-size="2.5" fill="black" stroke="none">Заземлитель</text>
    <text x="392.5" y="38" font-size="2" fill="black" stroke="none" text-anchor="middle">ГОСТ 2.751</text>

    <!-- 2. Контакт н.р. (46–61, 15мм), повёрнут 90°, VB 51–56 -->
    <g transform="translate(250, 56) rotate(90)"><use href="#ugo-contact" y="-10"/></g>
    <text x="272" y="56" font-size="2.5" fill="black" stroke="none">Контакт нормально разомкнутый</text>
    <text x="392.5" y="56" font-size="2" fill="black" stroke="none" text-anchor="middle">ГОСТ 2.755</text>

    <!-- 3. Автоматический выключатель (61–76, 15мм), повёрнут 90°, VB 66–71 -->
    <g transform="translate(250, 71) rotate(90)"><use href="#ugo-breaker" y="-10"/></g>
    <text x="272" y="71" font-size="2.5" fill="black" stroke="none">Автоматический выключатель</text>
    <text x="392.5" y="71" font-size="2" fill="black" stroke="none" text-anchor="middle">ГОСТ 2.755</text>

    <!-- 4. Генератор однофазный (76–96, 20мм), повёрнут 90°, VB 81–91 -->
    <g transform="translate(250, 86) rotate(90)"><use href="#ugo-generator" y="-10"/></g>
    <text x="272" y="88" font-size="2.5" fill="black" stroke="none">Обмотка генератора однофазная</text>
    <text x="392.5" y="88" font-size="2" fill="black" stroke="none" text-anchor="middle">ГОСТ 2.723</text>

    <!-- 5. Лампа накаливания (96–116, 20мм), повёрнут 90°, VB 101–111 -->
    <g transform="translate(250, 106) rotate(90)"><use href="#ugo-lamp" y="-10"/></g>
    <text x="272" y="108" font-size="2.5" fill="black" stroke="none">Лампа накаливания осветительная</text>
    <text x="392.5" y="108" font-size="2" fill="black" stroke="none" text-anchor="middle">ГОСТ 2.732</text>

    <!-- 6. Корпус (116–136, 20мм), VB 121–131 -->
    <rect x="240" y="121" width="20" height="10" fill="none" stroke="black" stroke-dasharray="2,1"/>
    <text x="272" y="128" font-size="2.5" fill="black" stroke="none">Корпус (оболочка)</text>
    <text x="392.5" y="128" font-size="2" fill="black" stroke="none" text-anchor="middle">ГОСТ 2.721</text>

    <!-- 7. Муфта кабельная (136–151, 15мм), VB 141–146 -->
    <use href="#ugo-mufta" x="250" y="141"/>
    <text x="272" y="146" font-size="2.5" fill="black" stroke="none">Муфта кабельная</text>
    <text x="392.5" y="146" font-size="2" fill="black" stroke="none" text-anchor="middle">—</text>

    <!-- 8. Узел (151–161, 10мм) -->
    <use href="#ugo-node" x="250" y="156"/>
    <text x="272" y="158" font-size="2.5" fill="black" stroke="none">Узел (точка соединения)</text>
    <text x="392.5" y="158" font-size="2" fill="black" stroke="none" text-anchor="middle">ГОСТ 2.721</text>

    <!-- 9. Кабель (161–171, 10мм) -->
    <line x1="240" y1="166" x2="260" y2="166" stroke="black" stroke-width="0.5"/>
    <text x="272" y="168" font-size="2.5" fill="black" stroke="none">Кабель</text>
    <text x="392.5" y="168" font-size="2" fill="black" stroke="none" text-anchor="middle">ГОСТ Р 50462</text>

    <!-- 10. L — фазный (171–181, 10мм) -->
    <line x1="240" y1="176" x2="260" y2="176" stroke="#8B4513" stroke-width="0.5"/>
    <text x="272" y="178" font-size="2.5" fill="black" stroke="none">L — фазный проводник</text>
    <text x="392.5" y="178" font-size="2" fill="black" stroke="none" text-anchor="middle">ГОСТ Р 50462</text>

    <!-- 11. N — нейтральный (181–191, 10мм) -->
    <line x1="240" y1="186" x2="260" y2="186" stroke="#0000CC" stroke-width="0.5"/>
    <text x="272" y="188" font-size="2.5" fill="black" stroke="none">N — нейтральный проводник</text>
    <text x="392.5" y="188" font-size="2" fill="black" stroke="none" text-anchor="middle">ГОСТ Р 50462</text>

    <!-- 12. PE — защитный (191–201, 10мм) -->
    <line x1="240" y1="196" x2="260" y2="196" stroke="#228B22" stroke-width="0.7"/>
    <line x1="240" y1="196" x2="260" y2="196" stroke="#FFD700" stroke-width="0.7" stroke-dasharray="2,2"/>
    <text x="272" y="198" font-size="2.5" fill="black" stroke="none">PE — защитный проводник</text>
    <text x="392.5" y="198" font-size="2" fill="black" stroke="none" text-anchor="middle">ГОСТ Р 50462</text>

    <!-- 13. PEN — совмещённый (201–211, 10мм) -->
    <line x1="240" y1="206" x2="260" y2="206" stroke="#228B22" stroke-width="0.7" stroke-dasharray="2,4" stroke-dashoffset="0"/>
    <line x1="240" y1="206" x2="260" y2="206" stroke="#FFD700" stroke-width="0.7" stroke-dasharray="2,4" stroke-dashoffset="4"/>
    <line x1="240" y1="206" x2="260" y2="206" stroke="#0000CC" stroke-width="0.7" stroke-dasharray="2,4" stroke-dashoffset="2"/>
    <text x="272" y="208" font-size="2.5" fill="black" stroke="none">PEN — совмещённый проводник</text>
    <text x="392.5" y="208" font-size="2" fill="black" stroke="none" text-anchor="middle">ГОСТ Р 50462</text>

    <!-- Пустая строка (211–236, 25мм) -->
  </g>

</svg>
