<?xml version="1.0" encoding="UTF-8"?>
<svg xmlns="http://www.w3.org/2000/svg" viewBox="-54 -34 78 68" width="78mm" height="68mm">
  <title>Three-phase Autotransformer Yd</title>
  <g>
    <path d="M-10.00,-5.00 A2.50,2.50 0 0,0 -10.00,-10.00" stroke-width="0.7" stroke="#000" fill="none"/>
    <text x="2" y="19" fill="#000000" font-family="sans-serif" font-size="4.0">C2</text>
    <text x="0.17" y="-15" fill="#000000" font-family="sans-serif" font-size="4.0">C1</text>
    <text x="-19.42" y="-15" fill="#000000" font-family="sans-serif" font-size="4.0">B1</text>
    <text x="-17.59" y="19" fill="#000000" font-family="sans-serif" font-size="4.0">B2</text>
    <path d="M-30.00,-5.00 A2.50,2.50 0 0,0 -30.00,-10.00" stroke-width="0.7" stroke="#000" fill="none"/>
    <polyline stroke-width="0.7" stroke="#000" fill="none" points="-40,20 -40,0 -30,0"/>
    <text x="-38.17" y="19" fill="#000000" font-family="sans-serif" font-size="4.0">A2</text>
    <polyline stroke-width="0.7" stroke="#000" fill="none" points="-20,20 -20,0 -10,0"/>
    <path d="M-10.00,-10.00 A2.50,2.50 0 0,0 -10.00,-15.00" stroke-width="0.7" stroke="#000" fill="none"/>
    <path d="M-30.00,-10.00 A2.50,2.50 0 0,0 -30.00,-15.00" stroke-width="0.7" stroke="#000" fill="none"/>
    <path d="M-10.00,0.00 A2.50,2.50 0 0,0 -10.00,-5.00" stroke-width="0.7" stroke="#000" fill="none"/>
    <path d="M-30.00,0.00 A2.50,2.50 0 0,0 -30.00,-5.00" stroke-width="0.7" stroke="#000" fill="none"/>
    <path d="M10.00,-5.00 A2.50,2.50 0 0,0 10.00,-10.00" stroke-width="0.7" stroke="#000" fill="none"/>
    <path d="M-30.00,5.00 A2.50,2.50 0 0,0 -30.00,0.00" stroke-width="0.7" stroke="#000" fill="none"/>
    <path d="M-10.00,5.00 A2.50,2.50 0 0,0 -10.00,0.00" stroke-width="0.7" stroke="#000" fill="none"/>
    <line stroke-width="0.7" stroke="#000" fill="none" x1="-10" y1="10" x2="-10" y2="5"/>
    <line stroke-width="0.7" stroke="#000" fill="none" x1="-30" y1="10" x2="-30" y2="5"/>
    <line stroke-width="0.7" stroke="#000" fill="none" x1="-10" y1="-15" x2="-10" y2="-20"/>
    <line stroke-width="0.7" stroke="#000" fill="none" x1="-30" y1="-15" x2="-30" y2="-20"/>
    <path d="M10.00,-10.00 A2.50,2.50 0 0,0 10.00,-15.00" stroke-width="0.7" stroke="#000" fill="none"/>
    <path d="M10.00,0.00 A2.50,2.50 0 0,0 10.00,-5.00" stroke-width="0.7" stroke="#000" fill="none"/>
    <path d="M10.00,5.00 A2.50,2.50 0 0,0 10.00,0.00" stroke-width="0.7" stroke="#000" fill="none"/>
    <line stroke-width="0.7" stroke="#000" fill="none" x1="-30" y1="10" x2="10" y2="10"/>
    <line stroke-width="0.7" stroke="#000" fill="none" x1="10" y1="10" x2="10" y2="5"/>
    <line stroke-width="0.7" stroke="#000" fill="none" x1="10" y1="-15" x2="10" y2="-20"/>
    <polyline stroke-width="0.7" stroke="#000" fill="none" points="0,20 0,0 10,0"/>
    <ellipse stroke-width="0.7" stroke="#000" fill="#000" cx="-10.00" cy="10.00" rx="1.00" ry="1.00"/>
    <text x="-40" y="-15" fill="#000000" font-family="sans-serif" font-size="4.0">A1</text>
    <circle cx="-20" cy="20" r="1.2" fill="#06f" stroke="none" opacity="0.5"/>
    <circle cx="-10" cy="-20" r="1.2" fill="#06f" stroke="none" opacity="0.5"/>
    <circle cx="-30" cy="-20" r="1.2" fill="#06f" stroke="none" opacity="0.5"/>
    <circle cx="0" cy="20" r="1.2" fill="#06f" stroke="none" opacity="0.5"/>
    <circle cx="10" cy="-20" r="1.2" fill="#06f" stroke="none" opacity="0.5"/>
    <circle cx="-40" cy="20" r="1.2" fill="#06f" stroke="none" opacity="0.5"/>
  </g>
</svg>
