<?xml version="1.0" encoding="UTF-8"?>
<svg xmlns="http://www.w3.org/2000/svg" viewBox="-34 -44 68 78" width="68mm" height="78mm">
  <title>Circuit-breaker 3p</title>
  <g>
    <line stroke-width="0.7" stroke="#000" fill="none" x1="-20" y1="15.5" x2="-20" y2="20"/>
    <line stroke-width="0.7" stroke="#000" fill="none" x1="0" y1="15.5" x2="0" y2="20"/>
    <path d="M-20.00,15.50 A4.00,2.50 0 0,0 -20.00,10.50" stroke-width="0.7" stroke="#000" fill="none"/>
    <path d="M-0.00,15.50 A4.00,2.50 0 0,0 0.00,10.50" stroke-width="0.7" stroke="#000" fill="none"/>
    <polyline stroke-width="0.7" stroke="#000" fill="none" points="-20,10.5 -20,8 -15,8 -15,3 -20,3 -20,0 -25,-20"/>
    <polyline stroke-width="0.7" stroke="#000" fill="none" points="0,10.5 0,8 5,8 5,3 0,3 0,0 -5,-20"/>
    <line stroke-width="0.7" stroke="#000" fill="none" x1="20" y1="15.5" x2="20" y2="20"/>
    <path d="M20.00,15.50 A4.00,2.50 0 0,0 20.00,10.50" stroke-width="0.7" stroke="#000" fill="none"/>
    <line stroke-width="0.7" stroke="#000" fill="none" x1="-20" y1="-30" x2="-20" y2="-20"/>
    <line stroke-width="0.7" stroke="#000" fill="none" x1="-18" y1="-26" x2="-22" y2="-22"/>
    <line stroke-width="0.7" stroke="#000" fill="none" x1="-22" y1="-26" x2="-18" y2="-22"/>
    <line stroke-width="0.7" stroke="#000" fill="none" x1="20" y1="-30" x2="20" y2="-20"/>
    <line stroke-width="0.7" stroke="#000" fill="none" x1="22" y1="-26" x2="18" y2="-22"/>
    <line stroke-width="0.7" stroke="#000" fill="none" x1="18" y1="-26" x2="22" y2="-22"/>
    <line stroke-width="0.7" stroke="#000" fill="none" x1="0" y1="-30" x2="0" y2="-20"/>
    <line stroke-width="0.7" stroke="#000" fill="none" x1="2" y1="-26" x2="-2" y2="-22"/>
    <line stroke-width="0.7" stroke="#000" fill="none" x1="-2" y1="-26" x2="2" y2="-22"/>
    <line stroke-width="0.3" stroke="#000" stroke-dasharray="4,2" fill="none" x1="-22.5" y1="-10" x2="17.5" y2="-10"/>
    <polyline stroke-width="0.7" stroke="#000" fill="none" points="20,10.5 20,8 25,8 25,3 20,3 20,0 15,-20"/>
    <line stroke-width="0.7" stroke="#000" fill="none" x1="-22" y1="-20" x2="-18" y2="-20"/>
    <line stroke-width="0.7" stroke="#000" fill="none" x1="-2" y1="-20" x2="2" y2="-20"/>
    <line stroke-width="0.7" stroke="#000" fill="none" x1="18" y1="-20" x2="22" y2="-20"/>
    <circle cx="0" cy="20" r="1.2" fill="#06f" stroke="none" opacity="0.5"/>
    <circle cx="-20" cy="20" r="1.2" fill="#06f" stroke="none" opacity="0.5"/>
    <circle cx="20" cy="20" r="1.2" fill="#06f" stroke="none" opacity="0.5"/>
    <circle cx="20" cy="-30" r="1.2" fill="#06f" stroke="none" opacity="0.5"/>
    <circle cx="0" cy="-30" r="1.2" fill="#06f" stroke="none" opacity="0.5"/>
    <circle cx="-20" cy="-30" r="1.2" fill="#06f" stroke="none" opacity="0.5"/>
  </g>
</svg>
