<?xml version="1.0" encoding="UTF-8"?>
<svg xmlns="http://www.w3.org/2000/svg" viewBox="-14 -34 48 68" width="48mm" height="68mm">
  <title>Disconnecting switch</title>
  <g>
    <ellipse stroke-width="0.7" stroke="#000" fill="none" cx="20.00" cy="-10.00" rx="2.00" ry="2.00"/>
    <ellipse stroke-width="0.7" stroke="#000" fill="none" cx="10.00" cy="-10.00" rx="2.00" ry="2.00"/>
    <ellipse stroke-width="0.7" stroke="#000" fill="none" cx="0.00" cy="-10.00" rx="2.00" ry="2.00"/>
    <polyline stroke-width="0.7" stroke="#000" fill="none" points="-5,-10 0,10 0,20"/>
    <polyline stroke-width="0.7" stroke="#000" fill="none" points="15,-10 20,10 20,20"/>
    <polyline stroke-width="0.7" stroke="#000" fill="none" points="5,-10 10,10 10,20"/>
    <line stroke-width="0.7" stroke="#000" fill="none" x1="0" y1="-20" x2="0" y2="-12"/>
    <line stroke-width="0.7" stroke="#000" fill="none" x1="2" y1="-12" x2="-2" y2="-12"/>
    <line stroke-width="0.7" stroke="#000" fill="none" x1="10" y1="-20" x2="10" y2="-12"/>
    <line stroke-width="0.7" stroke="#000" fill="none" x1="12" y1="-12" x2="8" y2="-12"/>
    <line stroke-width="0.7" stroke="#000" fill="none" x1="20" y1="-20" x2="20" y2="-12"/>
    <line stroke-width="0.7" stroke="#000" fill="none" x1="22" y1="-12" x2="18" y2="-12"/>
    <circle cx="0" cy="-21" r="1.2" fill="#06f" stroke="none" opacity="0.5"/>
    <circle cx="0" cy="21" r="1.2" fill="#06f" stroke="none" opacity="0.5"/>
    <circle cx="20" cy="-21" r="1.2" fill="#06f" stroke="none" opacity="0.5"/>
    <circle cx="20" cy="21" r="1.2" fill="#06f" stroke="none" opacity="0.5"/>
    <circle cx="10" cy="-21" r="1.2" fill="#06f" stroke="none" opacity="0.5"/>
    <circle cx="10" cy="21" r="1.2" fill="#06f" stroke="none" opacity="0.5"/>
  </g>
</svg>
