<?xml version="1.0" encoding="UTF-8"?>
<svg xmlns="http://www.w3.org/2000/svg" viewBox="-34 -29 68 48" width="68mm" height="48mm">
  <title>Direct &gt; One-phase alternating</title>
  <g>
    <line stroke-width="0.7" stroke="#000" fill="none" x1="-15" y1="-10" x2="-20" y2="-10"/>
    <polyline stroke-width="0.7" stroke="#000" fill="none" points="-15,-20 15,-20 15,10 -15,10"/>
    <path d="M7.51,5.22 A2.50,2.50 0 0,0 12.50,5.00" stroke-width="0.7" stroke="#000" fill="none"/>
    <line stroke-width="0.7" stroke="#000" fill="none" x1="20" y1="0" x2="15" y2="0"/>
    <line stroke-width="0.7" stroke="#000" fill="none" x1="15" y1="-10" x2="20" y2="-10"/>
    <line stroke-width="0.7" stroke="#000" fill="none" x1="-20" y1="0" x2="-15" y2="0"/>
    <line stroke-width="0.7" stroke="#000" fill="none" x1="-11" y1="-17" x2="-12.5" y2="-17"/>
    <line stroke-width="0.7" stroke="#000" fill="none" x1="-8" y1="-17" x2="-9.5" y2="-17"/>
    <line stroke-width="0.7" stroke="#000" fill="none" x1="-5" y1="-17" x2="-6.5" y2="-17"/>
    <line stroke-width="0.7" stroke="#000" fill="none" x1="-5" y1="-15" x2="-12.5" y2="-15"/>
    <path d="M7.49,4.78 A2.50,2.50 0 0,0 2.50,5.00" stroke-width="0.7" stroke="#000" fill="none"/>
    <line stroke-width="0.7" stroke="#000" fill="none" x1="14.5" y1="-19.5" x2="-14.5" y2="9.5"/>
    <circle cx="-21" cy="-10" r="1.2" fill="#06f" stroke="none" opacity="0.5"/>
    <circle cx="21" cy="-10" r="1.2" fill="#06f" stroke="none" opacity="0.5"/>
    <circle cx="21" cy="0" r="1.2" fill="#06f" stroke="none" opacity="0.5"/>
    <circle cx="-21" cy="0" r="1.2" fill="#06f" stroke="none" opacity="0.5"/>
  </g>
</svg>
