<?xml version="1.0" encoding="UTF-8"?>
<svg xmlns="http://www.w3.org/2000/svg" viewBox="-60 -54 78 108" width="78mm" height="108mm">
  <title>Magneto-thermal circuit breaker1P+N</title>
  <g>
    <polyline stroke-width="0.7" stroke="#000" fill="none" points="0,14 0,10 5,10 5,4 0,4 0,-6 -7,-25"/>
    <text x="4" y="-40" fill="#000000" font-family="sans-serif" font-size="4.0">1</text>
    <text x="4" y="39" fill="#000000" font-family="sans-serif" font-size="4.0">2</text>
    <rect stroke-width="0.7" stroke="#000" fill="none" x="-10" y="0" width="20" height="28"/>
    <text x="-16" y="39" fill="#000000" font-family="sans-serif" font-size="4.0">N</text>
    <text x="-4" y="25" fill="#000000" font-family="sans-serif" font-size="9.0">I&gt;</text>
    <line stroke-width="0.7" stroke="#000" fill="none" x1="-18" y1="-29" x2="-22" y2="-25"/>
    <line stroke-width="0.7" stroke="#000" fill="none" x1="-22" y1="-29" x2="-18" y2="-25"/>
    <line stroke-width="0.7" stroke="#000" fill="none" x1="2" y1="-29" x2="-2" y2="-25"/>
    <line stroke-width="0.7" stroke="#000" fill="none" x1="-2" y1="-29" x2="2" y2="-25"/>
    <line stroke-width="0.7" stroke="#000" fill="none" x1="-10" y1="14" x2="10" y2="14"/>
    <line stroke-width="0.7" stroke="#000" fill="none" x1="-20" y1="40" x2="-20" y2="29"/>
    <line stroke-width="0.7" stroke="#000" fill="none" x1="0" y1="40" x2="0" y2="29"/>
    <text x="-16" y="-40" fill="#000000" font-family="sans-serif" font-size="4.0">N</text>
    <polyline stroke-width="0.7" stroke="#000" fill="none" points="-20,28 -20,10 -20,4 -20,-6 -27,-25"/>
    <line stroke-width="0.7" stroke="#000" fill="none" x1="-20" y1="-27" x2="-20" y2="-40"/>
    <line stroke-width="0.7" stroke="#000" fill="none" x1="0" y1="-27" x2="0" y2="-40"/>
    <rect stroke-width="0.3" stroke="#000" fill="none" x="-46" y="-22" width="12" height="12"/>
    <line stroke-width="0.3" stroke="#000" fill="none" x1="-34" y1="-16" x2="-53" y2="-16"/>
    <line stroke-width="0.3" stroke="#000" fill="none" x1="-53" y1="-20" x2="-53" y2="-12"/>
    <line stroke-width="0.3" stroke="#000" fill="none" x1="-40" y1="-10" x2="-40" y2="-22"/>
    <line stroke-width="0.3" stroke="#000" stroke-dasharray="4,2" fill="none" x1="-33.59" y1="-16" x2="-3" y2="-16"/>
    <polyline stroke-width="0.3" stroke="#000" stroke-dasharray="4,2" fill="none" points="-10,21 -40,21 -40,-10"/>
    <line stroke-width="0.3" stroke="#000" stroke-dasharray="4,2" fill="none" x1="-10" y1="7" x2="-40" y2="7"/>
    <circle cx="-20" cy="-40" r="1.2" fill="#06f" stroke="none" opacity="0.5"/>
    <circle cx="0" cy="-40" r="1.2" fill="#06f" stroke="none" opacity="0.5"/>
    <circle cx="-20" cy="40" r="1.2" fill="#06f" stroke="none" opacity="0.5"/>
    <circle cx="0" cy="40" r="1.2" fill="#06f" stroke="none" opacity="0.5"/>
  </g>
</svg>
