<?xml version="1.0" encoding="UTF-8"?>
<svg xmlns="http://www.w3.org/2000/svg" viewBox="-45 -39 68 68" width="68mm" height="68mm">
  <title>Switch 3 positions including neutral</title>
  <g>
    <text x="-23" y="-40" fill="#000" font-family="sans-serif" font-size="6.0">_</text>
    <text x="10" y="6" fill="#000" font-family="sans-serif" font-size="6.0">_</text>
    <text x="19" y="-40" fill="#000" font-family="sans-serif" font-size="6.0">_</text>
    <line stroke-width="0.3" stroke="#000" stroke-dasharray="4,2" fill="none" x1="-26" y1="-15" x2="-26" y2="-11"/>
    <polyline stroke-width="0.3" stroke="#000" stroke-dasharray="4,2" fill="none" points="0,-8 -15,-8 -16,-6 -17,-8 -20,-8 -21,-6 -22,-8 -25,-8 -26,-6 -27,-8 -31,-8 -35,-8"/>
    <text x="-27" y="-17.67" fill="#000000" font-family="sans-serif" font-size="4.0">1-0-2</text>
    <line stroke-width="0.3" stroke="#000" stroke-dasharray="4,2" fill="none" x1="-16" y1="-15" x2="-16" y2="-11"/>
    <line stroke-width="0.3" stroke="#000" stroke-dasharray="4,2" fill="none" x1="-21" y1="-15" x2="-21" y2="-11"/>
    <polyline stroke-width="0.3" stroke="#000" fill="none" points="-38,-3 -35,-3 -35,-13 -32,-13"/>
    <line stroke-width="0.7" stroke="#000" fill="none" x1="0" y1="-16" x2="0" y2="-2"/>
    <ellipse stroke-width="0.7" stroke="#000" fill="#000" cx="0.00" cy="0.00" rx="1.00" ry="1.00"/>
    <line stroke-width="0.7" stroke="#000" fill="none" x1="-10" y1="-26" x2="-10" y2="-16"/>
    <line stroke-width="0.7" stroke="#000" fill="none" x1="10" y1="-26" x2="10" y2="-16"/>
    <line stroke-width="0.7" stroke="#000" fill="none" x1="0" y1="15" x2="0" y2="2"/>
    <circle cx="10" cy="-26" r="1.2" fill="#06f" stroke="none" opacity="0.5"/>
    <circle cx="0" cy="15" r="1.2" fill="#06f" stroke="none" opacity="0.5"/>
    <circle cx="-10" cy="-26" r="1.2" fill="#06f" stroke="none" opacity="0.5"/>
  </g>
</svg>
