<?xml version="1.0" encoding="UTF-8"?>
<svg xmlns="http://www.w3.org/2000/svg" viewBox="-14 -34 48 68" width="48mm" height="68mm">
  <title>Thermal relay</title>
  <g>
    <line stroke-width="0.7" stroke="#000" fill="none" x1="0" y1="-20" x2="0" y2="-5"/>
    <line stroke-width="0.7" stroke="#000" fill="none" x1="0" y1="5" x2="0" y2="20"/>
    <line stroke-width="0.7" stroke="#000" fill="none" x1="5" y1="-5" x2="5" y2="5"/>
    <line stroke-width="0.7" stroke="#000" fill="none" x1="0" y1="-5" x2="5" y2="-5"/>
    <line stroke-width="0.7" stroke="#000" fill="none" x1="0" y1="5" x2="5" y2="5"/>
    <line stroke-width="0.7" stroke="#000" fill="none" x1="10" y1="-20" x2="10" y2="-5"/>
    <line stroke-width="0.7" stroke="#000" fill="none" x1="10" y1="5" x2="10" y2="20"/>
    <line stroke-width="0.7" stroke="#000" fill="none" x1="15" y1="-5" x2="15" y2="5"/>
    <line stroke-width="0.7" stroke="#000" fill="none" x1="10" y1="-5" x2="15" y2="-5"/>
    <line stroke-width="0.7" stroke="#000" fill="none" x1="10" y1="5" x2="15" y2="5"/>
    <line stroke-width="0.7" stroke="#000" fill="none" x1="20" y1="-20" x2="20" y2="-5"/>
    <line stroke-width="0.7" stroke="#000" fill="none" x1="20" y1="5" x2="20" y2="20"/>
    <line stroke-width="0.7" stroke="#000" fill="none" x1="25" y1="-5" x2="25" y2="5"/>
    <line stroke-width="0.7" stroke="#000" fill="none" x1="20" y1="-5" x2="25" y2="-5"/>
    <line stroke-width="0.7" stroke="#000" fill="none" x1="20" y1="5" x2="25" y2="5"/>
    <circle cx="0" cy="-21" r="1.2" fill="#06f" stroke="none" opacity="0.5"/>
    <circle cx="0" cy="21" r="1.2" fill="#06f" stroke="none" opacity="0.5"/>
    <circle cx="10" cy="-21" r="1.2" fill="#06f" stroke="none" opacity="0.5"/>
    <circle cx="10" cy="21" r="1.2" fill="#06f" stroke="none" opacity="0.5"/>
    <circle cx="20" cy="-21" r="1.2" fill="#06f" stroke="none" opacity="0.5"/>
    <circle cx="20" cy="21" r="1.2" fill="#06f" stroke="none" opacity="0.5"/>
  </g>
</svg>
