<?xml version="1.0" encoding="UTF-8"?>
<svg xmlns="http://www.w3.org/2000/svg" viewBox="-35 -37 68 68" width="68mm" height="68mm">
  <title>Transformador de dos bobinatges</title>
  <g>
    <path d="M-15.00,-5.00 A5.00,5.00 0 0,0 -10.00,-10.00" stroke-width="0.7" stroke="#000" fill="none"/>
    <path d="M-20.00,-10.00 A5.00,5.00 0 0,0 -15.00,-5.00" stroke-width="0.7" stroke="#000" fill="none"/>
    <path d="M-5.00,-5.00 A5.00,5.00 0 0,0 0.00,-10.00" stroke-width="0.7" stroke="#000" fill="none"/>
    <path d="M-10.00,-10.00 A5.00,5.00 0 0,0 -5.00,-5.00" stroke-width="0.7" stroke="#000" fill="none"/>
    <path d="M5.00,-5.00 A5.00,5.00 0 0,0 10.00,-10.00" stroke-width="0.7" stroke="#000" fill="none"/>
    <path d="M0.00,-10.00 A5.00,5.00 0 0,0 5.00,-5.00" stroke-width="0.7" stroke="#000" fill="none"/>
    <path d="M15.00,-5.00 A5.00,5.00 0 0,0 20.00,-10.00" stroke-width="0.7" stroke="#000" fill="none"/>
    <path d="M10.00,-10.00 A5.00,5.00 0 0,0 15.00,-5.00" stroke-width="0.7" stroke="#000" fill="none"/>
    <path d="M-15.00,5.00 A5.00,5.00 0 0,0 -20.00,10.00" stroke-width="0.7" stroke="#000" fill="none"/>
    <path d="M-10.00,10.00 A5.00,5.00 0 0,0 -15.00,5.00" stroke-width="0.7" stroke="#000" fill="none"/>
    <path d="M-5.00,5.00 A5.00,5.00 0 0,0 -10.00,10.00" stroke-width="0.7" stroke="#000" fill="none"/>
    <path d="M0.00,10.00 A5.00,5.00 0 0,0 -5.00,5.00" stroke-width="0.7" stroke="#000" fill="none"/>
    <path d="M5.00,5.00 A5.00,5.00 0 0,0 0.00,10.00" stroke-width="0.7" stroke="#000" fill="none"/>
    <path d="M10.00,10.00 A5.00,5.00 0 0,0 5.00,5.00" stroke-width="0.7" stroke="#000" fill="none"/>
    <path d="M15.00,5.00 A5.00,5.00 0 0,0 10.00,10.00" stroke-width="0.7" stroke="#000" fill="none"/>
    <path d="M20.00,10.00 A5.00,5.00 0 0,0 15.00,5.00" stroke-width="0.7" stroke="#000" fill="none"/>
    <line stroke-width="1.5" stroke="#000" fill="none" x1="-18" y1="0" x2="18" y2="0"/>
    <text x="-23" y="-22" fill="#000" font-family="sans-serif" font-size="5.0">1</text>
    <text x="17" y="-22" fill="#000" font-family="sans-serif" font-size="5.0">2</text>
    <text x="-23" y="5" fill="#000" font-family="sans-serif" font-size="5.0">3</text>
    <text x="17" y="5" fill="#000" font-family="sans-serif" font-size="5.0">4</text>
    <text x="22" y="-7.5" fill="#000" font-family="sans-serif" font-size="7.0">_</text>
    <line stroke-width="0.7" stroke="#000" fill="none" x1="-20" y1="-15" x2="-20" y2="-10"/>
    <line stroke-width="0.7" stroke="#000" fill="none" x1="20" y1="-15" x2="20" y2="-10"/>
    <line stroke-width="0.7" stroke="#000" fill="none" x1="20" y1="10" x2="20" y2="15"/>
    <line stroke-width="0.7" stroke="#000" fill="none" x1="-20" y1="10" x2="-20" y2="15"/>
    <circle cx="20" cy="15" r="1.2" fill="#06f" stroke="none" opacity="0.5"/>
    <circle cx="-20" cy="-15" r="1.2" fill="#06f" stroke="none" opacity="0.5"/>
    <circle cx="20" cy="-15" r="1.2" fill="#06f" stroke="none" opacity="0.5"/>
    <circle cx="-20" cy="15" r="1.2" fill="#06f" stroke="none" opacity="0.5"/>
  </g>
</svg>
