<svg xmlns="http://www.w3.org/2000/svg" width="420mm" height="297mm" viewBox="0 0 420 297">
  <rect x="0.000" y="0.000" width="420.000" height="297.000" fill="white"/>
  <rect x="0.000" y="0.000" width="420.000" height="297.000" fill="none" stroke="black" stroke-width="0.25"/>
  <rect x="20.000" y="5.000" width="395.000" height="287.000" fill="none" stroke="black" stroke-width="0.7"/>
  <g id="stamp">
    <rect x="230.000" y="277.000" width="185.000" height="15.000" fill="none" stroke="black" stroke-width="0.7"/>
    <line x1="237.000" y1="277.000" x2="237.000" y2="292.000" stroke="black" stroke-width="0.25"/>
    <line x1="247.000" y1="277.000" x2="247.000" y2="292.000" stroke="black" stroke-width="0.25"/>
    <line x1="270.000" y1="277.000" x2="270.000" y2="292.000" stroke="black" stroke-width="0.25"/>
    <line x1="285.000" y1="277.000" x2="285.000" y2="292.000" stroke="black" stroke-width="0.25"/>
    <line x1="295.000" y1="277.000" x2="295.000" y2="292.000" stroke="black" stroke-width="0.25"/>
    <line x1="365.000" y1="277.000" x2="365.000" y2="292.000" stroke="black" stroke-width="0.25"/>
    <text x="231.000" y="287.000" text-anchor="start" font-size="2.5" fill="#666" font-family="sans-serif">Изм.</text>
    <text x="238.000" y="287.000" text-anchor="start" font-size="2.5" fill="#666" font-family="sans-serif">Лист</text>
    <text x="330.000" y="287.000" text-anchor="middle" font-size="3.5" fill="black" font-family="sans-serif">001.ЭОМ.004</text>
    <text x="390.000" y="287.000" text-anchor="middle" font-size="3.5" fill="black" font-family="sans-serif">Лист 4</text>
  </g>
<g id="drawing-view" transform="translate(25.000,39.088) scale(1.132353)"><rect x="0.00" y="0.00" width="340.00" height="180.00" fill="white" stroke="none" stroke-width="0.50"/>
  <text x="170.00" y="6.00" font-family="sans-serif" font-size="5.0" font-weight="bold" fill="black" text-anchor="middle">Однолинейная схема электроснабжения</text>
  <line x1="170.00" y1="14.00" x2="170.00" y2="16.00" stroke="black" stroke-width="0.50"/>
  <circle cx="170.00" cy="20.00" r="4.00" fill="none" stroke="black" stroke-width="0.50"/>
  <circle cx="170.00" cy="27.00" r="4.00" fill="none" stroke="black" stroke-width="0.50"/>
  <text x="176.00" y="20.00" font-family="sans-serif" font-size="3.5" font-weight="normal" fill="black" text-anchor="start">JUPITER-9000K-H1 (35/0.8кВ,...</text>
  <text x="176.00" y="23.80" font-family="sans-serif" font-size="2.8" font-weight="normal" fill="#444" text-anchor="start">35000В, 9000кВА</text>
  <line x1="170.00" y1="32.00" x2="170.00" y2="34.00" stroke="black" stroke-width="0.50"/>
  <line x1="170.00" y1="38.00" x2="170.00" y2="40.00" stroke="black" stroke-width="0.50"/>
  <rect x="167.00" y="40.00" width="6.00" height="8.00" fill="none" stroke="black" stroke-width="0.50"/>
  <line x1="167.00" y1="40.00" x2="173.00" y2="48.00" stroke="black" stroke-width="0.35"/>
  <line x1="173.00" y1="40.00" x2="167.00" y2="48.00" stroke="black" stroke-width="0.35"/>
  <text x="175.00" y="44.00" font-family="sans-serif" font-size="3.5" font-weight="normal" fill="black" text-anchor="start">2x QF-630A #1</text>
  <text x="175.00" y="47.80" font-family="sans-serif" font-size="2.8" font-weight="normal" fill="#444" text-anchor="start">630A, 800В</text>
  <line x1="170.00" y1="48.00" x2="170.00" y2="50.00" stroke="black" stroke-width="0.50"/>
  <line x1="170.00" y1="54.00" x2="170.00" y2="64.00" stroke="black" stroke-width="0.50" stroke-dasharray="2,1"/>
  <text x="173.00" y="59.00" font-family="sans-serif" font-size="3.5" font-weight="normal" fill="black" text-anchor="start">Cable 0.8kV (in ground)</text>
  <text x="173.00" y="62.80" font-family="sans-serif" font-size="2.8" font-weight="normal" fill="#444" text-anchor="start">800В</text>
  <line x1="130.00" y1="68.00" x2="210.00" y2="68.00" stroke="black" stroke-width="0.35" stroke-dasharray="4,2"/>
  <text x="212.00" y="69.00" font-family="sans-serif" font-size="2.8" font-weight="normal" fill="#666" text-anchor="start">Контейнер</text>
  <line x1="170.00" y1="72.00" x2="170.00" y2="74.00" stroke="black" stroke-width="0.50"/>
  <rect x="167.00" y="74.00" width="6.00" height="8.00" fill="none" stroke="black" stroke-width="0.50"/>
  <line x1="167.00" y1="74.00" x2="173.00" y2="82.00" stroke="black" stroke-width="0.35"/>
  <line x1="173.00" y1="74.00" x2="167.00" y2="82.00" stroke="black" stroke-width="0.35"/>
  <text x="175.00" y="78.00" font-family="sans-serif" font-size="3.5" font-weight="normal" fill="black" text-anchor="start">QF-400A</text>
  <text x="175.00" y="81.80" font-family="sans-serif" font-size="2.8" font-weight="normal" fill="#444" text-anchor="start">400A, 800В</text>
  <line x1="170.00" y1="82.00" x2="170.00" y2="84.00" stroke="black" stroke-width="0.50"/>
  <line x1="170.00" y1="88.00" x2="170.00" y2="90.00" stroke="black" stroke-width="0.50"/>
  <polyline points="170.0,90.0 173.0,92.0 167.0,94.0 173.0,96.0 167.0,98.0" fill="none" stroke="black" stroke-width="0.50"/>
  <line x1="165.00" y1="99.00" x2="175.00" y2="99.00" stroke="black" stroke-width="0.50"/>
  <line x1="166.50" y1="100.50" x2="173.50" y2="100.50" stroke="black" stroke-width="0.50"/>
  <line x1="168.00" y1="102.00" x2="172.00" y2="102.00" stroke="black" stroke-width="0.50"/>
  <text x="176.00" y="94.00" font-family="sans-serif" font-size="3.5" font-weight="normal" fill="black" text-anchor="start">ОПН</text>
  <text x="176.00" y="97.80" font-family="sans-serif" font-size="2.8" font-weight="normal" fill="#444" text-anchor="start">3шт, 660В</text>
  <line x1="170.00" y1="94.00" x2="170.00" y2="96.00" stroke="black" stroke-width="0.50"/>
  <line x1="140.00" y1="96.00" x2="200.00" y2="96.00" stroke="black" stroke-width="1.50"/>
  <text x="202.00" y="97.00" font-family="sans-serif" font-size="3.5" font-weight="normal" fill="black" text-anchor="start">Main Bus L1-L2-L3-PE(=N)</text>
  <text x="202.00" y="100.80" font-family="sans-serif" font-size="2.8" font-weight="normal" fill="#444" text-anchor="start">400A, 800В</text>
  <line x1="170.00" y1="96.00" x2="170.00" y2="98.00" stroke="black" stroke-width="0.50"/>
  <line x1="110.00" y1="102.00" x2="230.00" y2="102.00" stroke="black" stroke-width="0.50"/>
  <line x1="110.00" y1="102.00" x2="110.00" y2="104.00" stroke="black" stroke-width="0.50"/>
  <line x1="230.00" y1="102.00" x2="230.00" y2="104.00" stroke="black" stroke-width="0.50"/>
  <line x1="110.00" y1="104.00" x2="110.00" y2="106.00" stroke="black" stroke-width="0.50"/>
  <circle cx="110.00" cy="110.00" r="4.00" fill="none" stroke="black" stroke-width="0.50"/>
  <circle cx="110.00" cy="117.00" r="4.00" fill="none" stroke="black" stroke-width="0.50"/>
  <text x="116.00" y="110.00" font-family="sans-serif" font-size="3.5" font-weight="normal" fill="black" text-anchor="start">TRS-160 (0.8/0.4kV 160kVA YYn)</text>
  <text x="116.00" y="113.80" font-family="sans-serif" font-size="2.8" font-weight="normal" fill="#444" text-anchor="start">160кВА</text>
  <line x1="110.00" y1="122.00" x2="110.00" y2="124.00" stroke="black" stroke-width="0.50"/>
  <line x1="110.00" y1="128.00" x2="110.00" y2="130.00" stroke="black" stroke-width="0.50"/>
  <line x1="80.00" y1="130.00" x2="140.00" y2="130.00" stroke="black" stroke-width="1.50"/>
  <text x="142.00" y="131.00" font-family="sans-serif" font-size="3.5" font-weight="normal" fill="black" text-anchor="start">Secondary Bus L1'-L2'-L3'</text>
  <text x="142.00" y="134.80" font-family="sans-serif" font-size="2.8" font-weight="normal" fill="#444" text-anchor="start">200A, 400В</text>
  <line x1="110.00" y1="130.00" x2="110.00" y2="132.00" stroke="black" stroke-width="0.50"/>
  <line x1="110.00" y1="136.00" x2="110.00" y2="138.00" stroke="black" stroke-width="0.50"/>
  <rect x="95.00" y="138.00" width="30.00" height="10.00" fill="#f0f0f0" stroke="black" stroke-width="0.50"/>
  <text x="110.00" y="142.00" font-family="sans-serif" font-size="3.5" font-weight="normal" fill="black" text-anchor="middle">Левая группа</text>
  <text x="110.00" y="145.80" font-family="sans-serif" font-size="2.8" font-weight="normal" fill="#444" text-anchor="middle">120x S21 XP, L-L' 230В</text>
  <line x1="230.00" y1="104.00" x2="230.00" y2="106.00" stroke="black" stroke-width="0.50"/>
  <rect x="215.00" y="106.00" width="30.00" height="10.00" fill="#f0f0f0" stroke="black" stroke-width="0.50"/>
  <text x="230.00" y="110.00" font-family="sans-serif" font-size="3.5" font-weight="normal" fill="black" text-anchor="middle">Правая группа</text>
  <text x="230.00" y="113.80" font-family="sans-serif" font-size="2.8" font-weight="normal" fill="#444" text-anchor="middle">120x S21 XP, N-L 230В</text>
</g></svg>
