<svg xmlns="http://www.w3.org/2000/svg" width="420mm" height="297mm" viewBox="0 0 420 297">
  <rect x="0.000" y="0.000" width="420.000" height="297.000" fill="white"/>
  <rect x="0.000" y="0.000" width="420.000" height="297.000" fill="none" stroke="black" stroke-width="0.25"/>
  <rect x="20.000" y="5.000" width="395.000" height="287.000" fill="none" stroke="black" stroke-width="0.7"/>
  <g id="stamp">
    <rect x="230.000" y="277.000" width="185.000" height="15.000" fill="none" stroke="black" stroke-width="0.7"/>
    <line x1="237.000" y1="277.000" x2="237.000" y2="292.000" stroke="black" stroke-width="0.25"/>
    <line x1="247.000" y1="277.000" x2="247.000" y2="292.000" stroke="black" stroke-width="0.25"/>
    <line x1="270.000" y1="277.000" x2="270.000" y2="292.000" stroke="black" stroke-width="0.25"/>
    <line x1="285.000" y1="277.000" x2="285.000" y2="292.000" stroke="black" stroke-width="0.25"/>
    <line x1="295.000" y1="277.000" x2="295.000" y2="292.000" stroke="black" stroke-width="0.25"/>
    <line x1="365.000" y1="277.000" x2="365.000" y2="292.000" stroke="black" stroke-width="0.25"/>
    <text x="231.000" y="287.000" text-anchor="start" font-size="2.5" fill="#666" font-family="sans-serif">Изм.</text>
    <text x="238.000" y="287.000" text-anchor="start" font-size="2.5" fill="#666" font-family="sans-serif">Лист</text>
    <text x="330.000" y="287.000" text-anchor="middle" font-size="3.5" fill="black" font-family="sans-serif">001.КЖ</text>
    <text x="390.000" y="287.000" text-anchor="middle" font-size="3.5" fill="black" font-family="sans-serif">Лист 3</text>
  </g>
<g id="drawing-view" transform="translate(60.130,10.000) scale(1.701299)"><g id="spec-table">
    <rect x="0.000" y="0.000" width="185.000" height="10.000" fill="#f0f0f0" stroke="black" stroke-width="0.25"/>
    <text x="5.000" y="6.000" text-anchor="middle" font-size="3" fill="black" font-family="sans-serif" font-weight="bold">№</text>
    <line x1="10.000" y1="0.000" x2="10.000" y2="10.000" stroke="black" stroke-width="0.25"/>
    <text x="42.500" y="6.000" text-anchor="middle" font-size="3" fill="black" font-family="sans-serif" font-weight="bold">Наименование</text>
    <line x1="75.000" y1="0.000" x2="75.000" y2="10.000" stroke="black" stroke-width="0.25"/>
    <text x="97.500" y="6.000" text-anchor="middle" font-size="3" fill="black" font-family="sans-serif" font-weight="bold">Тип/Марка</text>
    <line x1="120.000" y1="0.000" x2="120.000" y2="10.000" stroke="black" stroke-width="0.25"/>
    <text x="127.500" y="6.000" text-anchor="middle" font-size="3" fill="black" font-family="sans-serif" font-weight="bold">Кол.</text>
    <line x1="135.000" y1="0.000" x2="135.000" y2="10.000" stroke="black" stroke-width="0.25"/>
    <text x="145.000" y="6.000" text-anchor="middle" font-size="3" fill="black" font-family="sans-serif" font-weight="bold">Масса,кг</text>
    <line x1="155.000" y1="0.000" x2="155.000" y2="10.000" stroke="black" stroke-width="0.25"/>
    <text x="170.000" y="6.000" text-anchor="middle" font-size="3" fill="black" font-family="sans-serif" font-weight="bold">Примечание</text>
    <line x1="0.000" y1="10.000" x2="185.000" y2="10.000" stroke="black" stroke-width="0.25"/>
    <text x="1.500" y="15.000" text-anchor="start" font-size="2.8" fill="black" font-family="sans-serif">1</text>
    <line x1="10.000" y1="10.000" x2="10.000" y2="18.000" stroke="black" stroke-width="0.25"/>
    <text x="11.500" y="15.000" text-anchor="start" font-size="2.8" fill="black" font-family="sans-serif">Miner</text>
    <line x1="75.000" y1="10.000" x2="75.000" y2="18.000" stroke="black" stroke-width="0.25"/>
    <text x="76.500" y="15.000" text-anchor="start" font-size="2.8" fill="black" font-family="sans-serif">Antminer_S21_XP</text>
    <line x1="120.000" y1="10.000" x2="120.000" y2="18.000" stroke="black" stroke-width="0.25"/>
    <text x="121.500" y="15.000" text-anchor="start" font-size="2.8" fill="black" font-family="sans-serif">240</text>
    <line x1="135.000" y1="10.000" x2="135.000" y2="18.000" stroke="black" stroke-width="0.25"/>
    <text x="136.500" y="15.000" text-anchor="start" font-size="2.8" fill="black" font-family="sans-serif"/>
    <line x1="155.000" y1="10.000" x2="155.000" y2="18.000" stroke="black" stroke-width="0.25"/>
    <text x="156.500" y="15.000" text-anchor="start" font-size="2.8" fill="black" font-family="sans-serif"/>
    <line x1="0.000" y1="18.000" x2="185.000" y2="18.000" stroke="black" stroke-width="0.25"/>
    <text x="1.500" y="23.000" text-anchor="start" font-size="2.8" fill="black" font-family="sans-serif">2</text>
    <line x1="10.000" y1="18.000" x2="10.000" y2="26.000" stroke="black" stroke-width="0.25"/>
    <text x="11.500" y="23.000" text-anchor="start" font-size="2.8" fill="black" font-family="sans-serif">RackPost</text>
    <line x1="75.000" y1="18.000" x2="75.000" y2="26.000" stroke="black" stroke-width="0.25"/>
    <text x="76.500" y="23.000" text-anchor="start" font-size="2.8" fill="black" font-family="sans-serif"/>
    <line x1="120.000" y1="18.000" x2="120.000" y2="26.000" stroke="black" stroke-width="0.25"/>
    <text x="121.500" y="23.000" text-anchor="start" font-size="2.8" fill="black" font-family="sans-serif">38</text>
    <line x1="135.000" y1="18.000" x2="135.000" y2="26.000" stroke="black" stroke-width="0.25"/>
    <text x="136.500" y="23.000" text-anchor="start" font-size="2.8" fill="black" font-family="sans-serif"/>
    <line x1="155.000" y1="18.000" x2="155.000" y2="26.000" stroke="black" stroke-width="0.25"/>
    <text x="156.500" y="23.000" text-anchor="start" font-size="2.8" fill="black" font-family="sans-serif"/>
    <line x1="0.000" y1="26.000" x2="185.000" y2="26.000" stroke="black" stroke-width="0.25"/>
    <text x="1.500" y="31.000" text-anchor="start" font-size="2.8" fill="black" font-family="sans-serif">3</text>
    <line x1="10.000" y1="26.000" x2="10.000" y2="34.000" stroke="black" stroke-width="0.25"/>
    <text x="11.500" y="31.000" text-anchor="start" font-size="2.8" fill="black" font-family="sans-serif">ShelfFrame</text>
    <line x1="75.000" y1="26.000" x2="75.000" y2="34.000" stroke="black" stroke-width="0.25"/>
    <text x="76.500" y="31.000" text-anchor="start" font-size="2.8" fill="black" font-family="sans-serif"/>
    <line x1="120.000" y1="26.000" x2="120.000" y2="34.000" stroke="black" stroke-width="0.25"/>
    <text x="121.500" y="31.000" text-anchor="start" font-size="2.8" fill="black" font-family="sans-serif">12</text>
    <line x1="135.000" y1="26.000" x2="135.000" y2="34.000" stroke="black" stroke-width="0.25"/>
    <text x="136.500" y="31.000" text-anchor="start" font-size="2.8" fill="black" font-family="sans-serif"/>
    <line x1="155.000" y1="26.000" x2="155.000" y2="34.000" stroke="black" stroke-width="0.25"/>
    <text x="156.500" y="31.000" text-anchor="start" font-size="2.8" fill="black" font-family="sans-serif"/>
    <line x1="0.000" y1="34.000" x2="185.000" y2="34.000" stroke="black" stroke-width="0.25"/>
    <text x="1.500" y="39.000" text-anchor="start" font-size="2.8" fill="black" font-family="sans-serif">4</text>
    <line x1="10.000" y1="34.000" x2="10.000" y2="42.000" stroke="black" stroke-width="0.25"/>
    <text x="11.500" y="39.000" text-anchor="start" font-size="2.8" fill="black" font-family="sans-serif">Footing</text>
    <line x1="75.000" y1="34.000" x2="75.000" y2="42.000" stroke="black" stroke-width="0.25"/>
    <text x="76.500" y="39.000" text-anchor="start" font-size="2.8" fill="black" font-family="sans-serif"/>
    <line x1="120.000" y1="34.000" x2="120.000" y2="42.000" stroke="black" stroke-width="0.25"/>
    <text x="121.500" y="39.000" text-anchor="start" font-size="2.8" fill="black" font-family="sans-serif">8</text>
    <line x1="135.000" y1="34.000" x2="135.000" y2="42.000" stroke="black" stroke-width="0.25"/>
    <text x="136.500" y="39.000" text-anchor="start" font-size="2.8" fill="black" font-family="sans-serif"/>
    <line x1="155.000" y1="34.000" x2="155.000" y2="42.000" stroke="black" stroke-width="0.25"/>
    <text x="156.500" y="39.000" text-anchor="start" font-size="2.8" fill="black" font-family="sans-serif"/>
    <line x1="0.000" y1="42.000" x2="185.000" y2="42.000" stroke="black" stroke-width="0.25"/>
    <text x="1.500" y="47.000" text-anchor="start" font-size="2.8" fill="black" font-family="sans-serif">5</text>
    <line x1="10.000" y1="42.000" x2="10.000" y2="50.000" stroke="black" stroke-width="0.25"/>
    <text x="11.500" y="47.000" text-anchor="start" font-size="2.8" fill="black" font-family="sans-serif">Shelf</text>
    <line x1="75.000" y1="42.000" x2="75.000" y2="50.000" stroke="black" stroke-width="0.25"/>
    <text x="76.500" y="47.000" text-anchor="start" font-size="2.8" fill="black" font-family="sans-serif"/>
    <line x1="120.000" y1="42.000" x2="120.000" y2="50.000" stroke="black" stroke-width="0.25"/>
    <text x="121.500" y="47.000" text-anchor="start" font-size="2.8" fill="black" font-family="sans-serif">6</text>
    <line x1="135.000" y1="42.000" x2="135.000" y2="50.000" stroke="black" stroke-width="0.25"/>
    <text x="136.500" y="47.000" text-anchor="start" font-size="2.8" fill="black" font-family="sans-serif"/>
    <line x1="155.000" y1="42.000" x2="155.000" y2="50.000" stroke="black" stroke-width="0.25"/>
    <text x="156.500" y="47.000" text-anchor="start" font-size="2.8" fill="black" font-family="sans-serif"/>
    <line x1="0.000" y1="50.000" x2="185.000" y2="50.000" stroke="black" stroke-width="0.25"/>
    <text x="1.500" y="55.000" text-anchor="start" font-size="2.8" fill="black" font-family="sans-serif">6</text>
    <line x1="10.000" y1="50.000" x2="10.000" y2="58.000" stroke="black" stroke-width="0.25"/>
    <text x="11.500" y="55.000" text-anchor="start" font-size="2.8" fill="black" font-family="sans-serif">Wall</text>
    <line x1="75.000" y1="50.000" x2="75.000" y2="58.000" stroke="black" stroke-width="0.25"/>
    <text x="76.500" y="55.000" text-anchor="start" font-size="2.8" fill="black" font-family="sans-serif"/>
    <line x1="120.000" y1="50.000" x2="120.000" y2="58.000" stroke="black" stroke-width="0.25"/>
    <text x="121.500" y="55.000" text-anchor="start" font-size="2.8" fill="black" font-family="sans-serif">4</text>
    <line x1="135.000" y1="50.000" x2="135.000" y2="58.000" stroke="black" stroke-width="0.25"/>
    <text x="136.500" y="55.000" text-anchor="start" font-size="2.8" fill="black" font-family="sans-serif"/>
    <line x1="155.000" y1="50.000" x2="155.000" y2="58.000" stroke="black" stroke-width="0.25"/>
    <text x="156.500" y="55.000" text-anchor="start" font-size="2.8" fill="black" font-family="sans-serif"/>
    <line x1="0.000" y1="58.000" x2="185.000" y2="58.000" stroke="black" stroke-width="0.25"/>
    <text x="1.500" y="63.000" text-anchor="start" font-size="2.8" fill="black" font-family="sans-serif">7</text>
    <line x1="10.000" y1="58.000" x2="10.000" y2="66.000" stroke="black" stroke-width="0.25"/>
    <text x="11.500" y="63.000" text-anchor="start" font-size="2.8" fill="black" font-family="sans-serif">Container Door</text>
    <line x1="75.000" y1="58.000" x2="75.000" y2="66.000" stroke="black" stroke-width="0.25"/>
    <text x="76.500" y="63.000" text-anchor="start" font-size="2.8" fill="black" font-family="sans-serif"/>
    <line x1="120.000" y1="58.000" x2="120.000" y2="66.000" stroke="black" stroke-width="0.25"/>
    <text x="121.500" y="63.000" text-anchor="start" font-size="2.8" fill="black" font-family="sans-serif">1</text>
    <line x1="135.000" y1="58.000" x2="135.000" y2="66.000" stroke="black" stroke-width="0.25"/>
    <text x="136.500" y="63.000" text-anchor="start" font-size="2.8" fill="black" font-family="sans-serif"/>
    <line x1="155.000" y1="58.000" x2="155.000" y2="66.000" stroke="black" stroke-width="0.25"/>
    <text x="156.500" y="63.000" text-anchor="start" font-size="2.8" fill="black" font-family="sans-serif"/>
    <line x1="0.000" y1="66.000" x2="185.000" y2="66.000" stroke="black" stroke-width="0.25"/>
    <text x="1.500" y="71.000" text-anchor="start" font-size="2.8" fill="black" font-family="sans-serif">8</text>
    <line x1="10.000" y1="66.000" x2="10.000" y2="74.000" stroke="black" stroke-width="0.25"/>
    <text x="11.500" y="71.000" text-anchor="start" font-size="2.8" fill="black" font-family="sans-serif">RackRail_F_Bot</text>
    <line x1="75.000" y1="66.000" x2="75.000" y2="74.000" stroke="black" stroke-width="0.25"/>
    <text x="76.500" y="71.000" text-anchor="start" font-size="2.8" fill="black" font-family="sans-serif"/>
    <line x1="120.000" y1="66.000" x2="120.000" y2="74.000" stroke="black" stroke-width="0.25"/>
    <text x="121.500" y="71.000" text-anchor="start" font-size="2.8" fill="black" font-family="sans-serif">1</text>
    <line x1="135.000" y1="66.000" x2="135.000" y2="74.000" stroke="black" stroke-width="0.25"/>
    <text x="136.500" y="71.000" text-anchor="start" font-size="2.8" fill="black" font-family="sans-serif"/>
    <line x1="155.000" y1="66.000" x2="155.000" y2="74.000" stroke="black" stroke-width="0.25"/>
    <text x="156.500" y="71.000" text-anchor="start" font-size="2.8" fill="black" font-family="sans-serif"/>
    <line x1="0.000" y1="74.000" x2="185.000" y2="74.000" stroke="black" stroke-width="0.25"/>
    <text x="1.500" y="79.000" text-anchor="start" font-size="2.8" fill="black" font-family="sans-serif">9</text>
    <line x1="10.000" y1="74.000" x2="10.000" y2="82.000" stroke="black" stroke-width="0.25"/>
    <text x="11.500" y="79.000" text-anchor="start" font-size="2.8" fill="black" font-family="sans-serif">RackRail_F_Top</text>
    <line x1="75.000" y1="74.000" x2="75.000" y2="82.000" stroke="black" stroke-width="0.25"/>
    <text x="76.500" y="79.000" text-anchor="start" font-size="2.8" fill="black" font-family="sans-serif"/>
    <line x1="120.000" y1="74.000" x2="120.000" y2="82.000" stroke="black" stroke-width="0.25"/>
    <text x="121.500" y="79.000" text-anchor="start" font-size="2.8" fill="black" font-family="sans-serif">1</text>
    <line x1="135.000" y1="74.000" x2="135.000" y2="82.000" stroke="black" stroke-width="0.25"/>
    <text x="136.500" y="79.000" text-anchor="start" font-size="2.8" fill="black" font-family="sans-serif"/>
    <line x1="155.000" y1="74.000" x2="155.000" y2="82.000" stroke="black" stroke-width="0.25"/>
    <text x="156.500" y="79.000" text-anchor="start" font-size="2.8" fill="black" font-family="sans-serif"/>
    <line x1="0.000" y1="82.000" x2="185.000" y2="82.000" stroke="black" stroke-width="0.25"/>
    <text x="1.500" y="87.000" text-anchor="start" font-size="2.8" fill="black" font-family="sans-serif">10</text>
    <line x1="10.000" y1="82.000" x2="10.000" y2="90.000" stroke="black" stroke-width="0.25"/>
    <text x="11.500" y="87.000" text-anchor="start" font-size="2.8" fill="black" font-family="sans-serif">RackRail_R_Bot</text>
    <line x1="75.000" y1="82.000" x2="75.000" y2="90.000" stroke="black" stroke-width="0.25"/>
    <text x="76.500" y="87.000" text-anchor="start" font-size="2.8" fill="black" font-family="sans-serif"/>
    <line x1="120.000" y1="82.000" x2="120.000" y2="90.000" stroke="black" stroke-width="0.25"/>
    <text x="121.500" y="87.000" text-anchor="start" font-size="2.8" fill="black" font-family="sans-serif">1</text>
    <line x1="135.000" y1="82.000" x2="135.000" y2="90.000" stroke="black" stroke-width="0.25"/>
    <text x="136.500" y="87.000" text-anchor="start" font-size="2.8" fill="black" font-family="sans-serif"/>
    <line x1="155.000" y1="82.000" x2="155.000" y2="90.000" stroke="black" stroke-width="0.25"/>
    <text x="156.500" y="87.000" text-anchor="start" font-size="2.8" fill="black" font-family="sans-serif"/>
    <line x1="0.000" y1="90.000" x2="185.000" y2="90.000" stroke="black" stroke-width="0.25"/>
    <text x="1.500" y="95.000" text-anchor="start" font-size="2.8" fill="black" font-family="sans-serif">11</text>
    <line x1="10.000" y1="90.000" x2="10.000" y2="98.000" stroke="black" stroke-width="0.25"/>
    <text x="11.500" y="95.000" text-anchor="start" font-size="2.8" fill="black" font-family="sans-serif">RackRail_R_Top</text>
    <line x1="75.000" y1="90.000" x2="75.000" y2="98.000" stroke="black" stroke-width="0.25"/>
    <text x="76.500" y="95.000" text-anchor="start" font-size="2.8" fill="black" font-family="sans-serif"/>
    <line x1="120.000" y1="90.000" x2="120.000" y2="98.000" stroke="black" stroke-width="0.25"/>
    <text x="121.500" y="95.000" text-anchor="start" font-size="2.8" fill="black" font-family="sans-serif">1</text>
    <line x1="135.000" y1="90.000" x2="135.000" y2="98.000" stroke="black" stroke-width="0.25"/>
    <text x="136.500" y="95.000" text-anchor="start" font-size="2.8" fill="black" font-family="sans-serif"/>
    <line x1="155.000" y1="90.000" x2="155.000" y2="98.000" stroke="black" stroke-width="0.25"/>
    <text x="156.500" y="95.000" text-anchor="start" font-size="2.8" fill="black" font-family="sans-serif"/>
    <line x1="0.000" y1="98.000" x2="185.000" y2="98.000" stroke="black" stroke-width="0.25"/>
    <text x="1.500" y="103.000" text-anchor="start" font-size="2.8" fill="black" font-family="sans-serif">12</text>
    <line x1="10.000" y1="98.000" x2="10.000" y2="106.000" stroke="black" stroke-width="0.25"/>
    <text x="11.500" y="103.000" text-anchor="start" font-size="2.8" fill="black" font-family="sans-serif">Floor</text>
    <line x1="75.000" y1="98.000" x2="75.000" y2="106.000" stroke="black" stroke-width="0.25"/>
    <text x="76.500" y="103.000" text-anchor="start" font-size="2.8" fill="black" font-family="sans-serif"/>
    <line x1="120.000" y1="98.000" x2="120.000" y2="106.000" stroke="black" stroke-width="0.25"/>
    <text x="121.500" y="103.000" text-anchor="start" font-size="2.8" fill="black" font-family="sans-serif">1</text>
    <line x1="135.000" y1="98.000" x2="135.000" y2="106.000" stroke="black" stroke-width="0.25"/>
    <text x="136.500" y="103.000" text-anchor="start" font-size="2.8" fill="black" font-family="sans-serif"/>
    <line x1="155.000" y1="98.000" x2="155.000" y2="106.000" stroke="black" stroke-width="0.25"/>
    <text x="156.500" y="103.000" text-anchor="start" font-size="2.8" fill="black" font-family="sans-serif"/>
    <line x1="0.000" y1="106.000" x2="185.000" y2="106.000" stroke="black" stroke-width="0.25"/>
    <text x="1.500" y="111.000" text-anchor="start" font-size="2.8" fill="black" font-family="sans-serif">13</text>
    <line x1="10.000" y1="106.000" x2="10.000" y2="114.000" stroke="black" stroke-width="0.25"/>
    <text x="11.500" y="111.000" text-anchor="start" font-size="2.8" fill="black" font-family="sans-serif">Roof</text>
    <line x1="75.000" y1="106.000" x2="75.000" y2="114.000" stroke="black" stroke-width="0.25"/>
    <text x="76.500" y="111.000" text-anchor="start" font-size="2.8" fill="black" font-family="sans-serif"/>
    <line x1="120.000" y1="106.000" x2="120.000" y2="114.000" stroke="black" stroke-width="0.25"/>
    <text x="121.500" y="111.000" text-anchor="start" font-size="2.8" fill="black" font-family="sans-serif">1</text>
    <line x1="135.000" y1="106.000" x2="135.000" y2="114.000" stroke="black" stroke-width="0.25"/>
    <text x="136.500" y="111.000" text-anchor="start" font-size="2.8" fill="black" font-family="sans-serif"/>
    <line x1="155.000" y1="106.000" x2="155.000" y2="114.000" stroke="black" stroke-width="0.25"/>
    <text x="156.500" y="111.000" text-anchor="start" font-size="2.8" fill="black" font-family="sans-serif"/>
    <line x1="0.000" y1="114.000" x2="185.000" y2="114.000" stroke="black" stroke-width="0.25"/>
    <text x="1.500" y="119.000" text-anchor="start" font-size="2.8" fill="black" font-family="sans-serif">14</text>
    <line x1="10.000" y1="114.000" x2="10.000" y2="122.000" stroke="black" stroke-width="0.25"/>
    <text x="11.500" y="119.000" text-anchor="start" font-size="2.8" fill="black" font-family="sans-serif">TRS-160 (0.8/0.4kV 160kVA YYn)</text>
    <line x1="75.000" y1="114.000" x2="75.000" y2="122.000" stroke="black" stroke-width="0.25"/>
    <text x="76.500" y="119.000" text-anchor="start" font-size="2.8" fill="black" font-family="sans-serif"/>
    <line x1="120.000" y1="114.000" x2="120.000" y2="122.000" stroke="black" stroke-width="0.25"/>
    <text x="121.500" y="119.000" text-anchor="start" font-size="2.8" fill="black" font-family="sans-serif">1</text>
    <line x1="135.000" y1="114.000" x2="135.000" y2="122.000" stroke="black" stroke-width="0.25"/>
    <text x="136.500" y="119.000" text-anchor="start" font-size="2.8" fill="black" font-family="sans-serif"/>
    <line x1="155.000" y1="114.000" x2="155.000" y2="122.000" stroke="black" stroke-width="0.25"/>
    <text x="156.500" y="119.000" text-anchor="start" font-size="2.8" fill="black" font-family="sans-serif"/>
    <line x1="0.000" y1="122.000" x2="185.000" y2="122.000" stroke="black" stroke-width="0.25"/>
    <text x="1.500" y="127.000" text-anchor="start" font-size="2.8" fill="black" font-family="sans-serif">15</text>
    <line x1="10.000" y1="122.000" x2="10.000" y2="130.000" stroke="black" stroke-width="0.25"/>
    <text x="11.500" y="127.000" text-anchor="start" font-size="2.8" fill="black" font-family="sans-serif">Opening for Container Door</text>
    <line x1="75.000" y1="122.000" x2="75.000" y2="130.000" stroke="black" stroke-width="0.25"/>
    <text x="76.500" y="127.000" text-anchor="start" font-size="2.8" fill="black" font-family="sans-serif"/>
    <line x1="120.000" y1="122.000" x2="120.000" y2="130.000" stroke="black" stroke-width="0.25"/>
    <text x="121.500" y="127.000" text-anchor="start" font-size="2.8" fill="black" font-family="sans-serif">1</text>
    <line x1="135.000" y1="122.000" x2="135.000" y2="130.000" stroke="black" stroke-width="0.25"/>
    <text x="136.500" y="127.000" text-anchor="start" font-size="2.8" fill="black" font-family="sans-serif"/>
    <line x1="155.000" y1="122.000" x2="155.000" y2="130.000" stroke="black" stroke-width="0.25"/>
    <text x="156.500" y="127.000" text-anchor="start" font-size="2.8" fill="black" font-family="sans-serif"/>
    <line x1="0.000" y1="130.000" x2="185.000" y2="130.000" stroke="black" stroke-width="0.25"/>
    <text x="1.500" y="135.000" text-anchor="start" font-size="2.8" fill="black" font-family="sans-serif">16</text>
    <line x1="10.000" y1="130.000" x2="10.000" y2="138.000" stroke="black" stroke-width="0.25"/>
    <text x="11.500" y="135.000" text-anchor="start" font-size="2.8" fill="black" font-family="sans-serif">My Building</text>
    <line x1="75.000" y1="130.000" x2="75.000" y2="138.000" stroke="black" stroke-width="0.25"/>
    <text x="76.500" y="135.000" text-anchor="start" font-size="2.8" fill="black" font-family="sans-serif"/>
    <line x1="120.000" y1="130.000" x2="120.000" y2="138.000" stroke="black" stroke-width="0.25"/>
    <text x="121.500" y="135.000" text-anchor="start" font-size="2.8" fill="black" font-family="sans-serif">1</text>
    <line x1="135.000" y1="130.000" x2="135.000" y2="138.000" stroke="black" stroke-width="0.25"/>
    <text x="136.500" y="135.000" text-anchor="start" font-size="2.8" fill="black" font-family="sans-serif"/>
    <line x1="155.000" y1="130.000" x2="155.000" y2="138.000" stroke="black" stroke-width="0.25"/>
    <text x="156.500" y="135.000" text-anchor="start" font-size="2.8" fill="black" font-family="sans-serif"/>
    <line x1="0.000" y1="138.000" x2="185.000" y2="138.000" stroke="black" stroke-width="0.25"/>
    <text x="1.500" y="143.000" text-anchor="start" font-size="2.8" fill="black" font-family="sans-serif">17</text>
    <line x1="10.000" y1="138.000" x2="10.000" y2="146.000" stroke="black" stroke-width="0.25"/>
    <text x="11.500" y="143.000" text-anchor="start" font-size="2.8" fill="black" font-family="sans-serif">My Storey</text>
    <line x1="75.000" y1="138.000" x2="75.000" y2="146.000" stroke="black" stroke-width="0.25"/>
    <text x="76.500" y="143.000" text-anchor="start" font-size="2.8" fill="black" font-family="sans-serif"/>
    <line x1="120.000" y1="138.000" x2="120.000" y2="146.000" stroke="black" stroke-width="0.25"/>
    <text x="121.500" y="143.000" text-anchor="start" font-size="2.8" fill="black" font-family="sans-serif">1</text>
    <line x1="135.000" y1="138.000" x2="135.000" y2="146.000" stroke="black" stroke-width="0.25"/>
    <text x="136.500" y="143.000" text-anchor="start" font-size="2.8" fill="black" font-family="sans-serif"/>
    <line x1="155.000" y1="138.000" x2="155.000" y2="146.000" stroke="black" stroke-width="0.25"/>
    <text x="156.500" y="143.000" text-anchor="start" font-size="2.8" fill="black" font-family="sans-serif"/>
    <line x1="0.000" y1="146.000" x2="185.000" y2="146.000" stroke="black" stroke-width="0.25"/>
    <text x="1.500" y="151.000" text-anchor="start" font-size="2.8" fill="black" font-family="sans-serif">18</text>
    <line x1="10.000" y1="146.000" x2="10.000" y2="154.000" stroke="black" stroke-width="0.25"/>
    <text x="11.500" y="151.000" text-anchor="start" font-size="2.8" fill="black" font-family="sans-serif">My Site</text>
    <line x1="75.000" y1="146.000" x2="75.000" y2="154.000" stroke="black" stroke-width="0.25"/>
    <text x="76.500" y="151.000" text-anchor="start" font-size="2.8" fill="black" font-family="sans-serif"/>
    <line x1="120.000" y1="146.000" x2="120.000" y2="154.000" stroke="black" stroke-width="0.25"/>
    <text x="121.500" y="151.000" text-anchor="start" font-size="2.8" fill="black" font-family="sans-serif">1</text>
    <line x1="135.000" y1="146.000" x2="135.000" y2="154.000" stroke="black" stroke-width="0.25"/>
    <text x="136.500" y="151.000" text-anchor="start" font-size="2.8" fill="black" font-family="sans-serif"/>
    <line x1="155.000" y1="146.000" x2="155.000" y2="154.000" stroke="black" stroke-width="0.25"/>
    <text x="156.500" y="151.000" text-anchor="start" font-size="2.8" fill="black" font-family="sans-serif"/>
    <rect x="0.000" y="0.000" width="185.000" height="154.000" fill="none" stroke="black" stroke-width="0.7"/>
  </g>
</g></svg>
