<svg xmlns="http://www.w3.org/2000/svg" xmlns:xlink="http://www.w3.org/1999/xlink" xmlns:ifc="http://www.ifcopenshell.org/ns" viewBox="144.206 123.821 131.588 49.358"><defs>
		
        
		<marker id="arrowend" markerWidth="10" markerHeight="7" refX="10" refY="3.5" orient="auto">
			
          
			<polygon points="0 0, 10 3.5, 0 7"/>
			
        
		</marker>
		
        
		<marker id="arrowstart" markerWidth="10" markerHeight="7" refX="0" refY="3.5" orient="auto">
			
          
			<polygon points="10 0, 0 3.5, 10 7"/>
			
        
		</marker>
		
    
	</defs>
	
    
	<style type="text/css">
		
    

        .cut path {
            stroke: #222222;
            fill: #444444;
            fill-rule: evenodd;
        }
        .projection path {
            stroke: #222222;
            fill: none;
            stroke-opacity: 0.6;
        }
        .IfcDoor path,
        .Symbol path {
            fill: none;
        }
        .Symbol path {
            stroke-width: 0.5px;
        }
        .IfcSpace path {
            fill-opacity: .2;
        }
        .Dimension path {
            marker-end: url(#arrowend);
            marker-start: url(#arrowstart);
        }
        text {
            font-size: 2;
        }
        path {
            stroke-width: 0.3;
        }
    		
    
	</style>
	
    
	<g ifc:name="Elevation South" class="section" ifc:plane="[[-1.000000,0.000000,0.000000,0.000000],[0.000000,0.000000,1.000000,2.657000],[0.000000,1.000000,0.000000,0.000000],[0.000000,0.000000,0.000000,1.000000]]" ifc:matrix3="[[10.000000,0.000000,270.960000],[0.000000,10.000000,159.455000],[0.000000,0.000000,1.000000]]">
		
        
		
    
		<g class="projection">
			<path d="M228.31999999999999,169.25500000000002 L191.68000000000001,169.25500000000002 L191.68000000000001,153.45500000000001 L191.68100000000001,153.45500000000001 L228.31899999999999,153.45500000000001 L228.31999999999999,153.45500000000001 Z" style="fill: none" ifc:pointInside="216.10633333333334,163.98833333333334"/>
			<path d="M187.679,169.45500000000001 L179.81517699520506,169.45500000000001 L179.81517699520506,169.25500000000002 L187.68000000000001,169.25500000000002 L187.68000000000001,169.45500000000001 Z" style="fill: rgb(238.48585767205583, 238.48585767205583, 238.48585767205583)" ifc:pointInside="185.05805899840169,169.32166666666669" class="IfcCableSegment"/>
			<path d="M191.62885582436363,169.45500000000001 L191.48293773580482,169.45500000000001 L191.48093773580479,169.45500000000001 L191.24466296493605,169.45500000000001 L191.24266296493605,169.45500000000001 L190.9279796037174,169.45500000000001 L190.92597960371742,169.45500000000001 L190.54876747823508,169.45500000000004 L190.54676747823513,169.45500000000001 L190.12604186791262,169.45500000000001 L190.12404186791261,169.45500000000004 L189.68100000000001,169.45500000000001 L189.679,169.45500000000001 L189.23595813208735,169.45500000000004 L189.23395813208737,169.45500000000001 L188.81323252176489,169.45500000000001 L188.81123252176488,169.45500000000004 L188.43402039628253,169.45500000000001 L188.4320203962825,169.45500000000001 L188.11733703506388,169.45500000000001 L188.1153370350639,169.45500000000001 L187.87906226419511,169.45500000000001 L187.8770622641951,169.45500000000001 L187.73114417563633,169.45500000000001 L187.72914417563632,169.45500000000001 L187.68000000000001,169.45500000000001 L187.68000000000001,169.25500000000002 L187.68100000000001,169.25500000000002 L187.68000000000001,169.25500000000002 L187.68000000000001,153.45500000000001 L187.72914417563632,153.45500000000001 L187.73114417563633,153.45500000000001 L187.8770622641951,153.45500000000001 L187.87906226419511,153.45500000000001 L188.1153370350639,153.45500000000001 L188.11733703506388,153.45500000000001 L188.4320203962825,153.45500000000001 L188.43402039628253,153.45500000000001 L188.81123252176488,153.45500000000004 L188.81323252176489,153.45500000000001 L189.23395813208737,153.45500000000001 L189.23595813208735,153.45500000000004 L189.679,153.45500000000001 L189.68100000000001,153.45500000000001 L190.12404186791261,153.45500000000004 L190.12604186791262,153.45500000000001 L190.54676747823513,153.45500000000001 L190.54876747823508,153.45500000000004 L190.92597960371742,153.45500000000001 L190.9279796037174,153.45500000000001 L191.24266296493605,153.45500000000001 L191.24466296493605,153.45500000000001 L191.48093773580479,153.45500000000001 L191.48293773580482,153.45500000000001 L191.62885582436363,153.45500000000001 L191.63085582436364,153.45500000000001 L191.68000000000001,153.45500000000001 L191.68000000000001,169.25500000000002 L191.67900000000003,169.25500000000002 L191.68000000000001,169.25500000000002 L191.68000000000001,169.45500000000001 L191.63085582436364,169.45500000000001 Z" style="fill: rgb(245.1363649750526, 245.1363649750526, 245.1363649750526)" ifc:pointInside="189.01300000000001,164.05500000000001" class="IfcFooting"/>
			<path d="M228.31899999999999,169.45500000000001 L191.68100000000001,169.45500000000001 L191.68000000000001,169.45500000000001 L191.68000000000001,169.25500000000002 L228.31999999999999,169.25500000000002 L228.31999999999999,169.45500000000001 Z" style="fill: rgb(238.48585767205583, 238.48585767205583, 238.48585767205583)" ifc:pointInside="216.10633333333334,169.32166666666669" class="IfcCableSegment"/>
			<path d="M148.88999999999999,143.10500000000002 L148.98999999999995,143.10500000000002 L148.98999999999995,143.30500000000001 L148.88999999999999,143.30500000000001 Z" style="fill: rgb(246.37464589091923, 246.37464589091923, 246.37464589091923)" ifc:pointInside="148.95666666666659,143.23833333333334" class="IfcDoor"/>
			<path d="M149.03899999999996,153.45500000000001 L148.98999999999995,153.45500000000001 L148.98999999999995,143.30500000000001 L148.99099999999996,143.30500000000001 L148.98999999999995,143.30500000000001 L148.98999999999995,143.10500000000002 L148.99099999999996,143.10500000000002 L148.98999999999995,143.10500000000002 L148.98999999999995,130.405 L149.03999999999996,130.405 L149.03999999999996,153.45500000000001 Z" style="fill: rgb(249.11449613822262, 249.11449613822262, 249.11449613822262)" ifc:pointInside="149.02366666666666,142.32166666666669" class="IfcDoor"/>
			<path d="M270.95999999999998,127.54500000000002 L270.95999999999998,153.45500000000001 L270.93876747823515,153.45499999999998 L270.93676747823514,153.45500000000001 L270.51604186791258,153.45500000000001 L270.51404186791262,153.45499999999998 L270.07099999999997,153.45500000000001 L270.06900000000002,153.45500000000001 L269.62595813208731,153.45499999999998 L269.6239581320873,153.45500000000001 L269.2032325217649,153.45500000000001 L269.20123252176489,153.45499999999998 L268.82402039628255,153.45500000000001 L268.82202039628248,153.45500000000001 L268.50733703506393,153.45500000000004 L268.50533703506392,153.45500000000001 L268.2690622641951,153.45500000000001 L268.26706226419515,153.45500000000004 L268.12114417563635,153.45500000000001 L268.11914417563634,153.45500000000001 L268.06999999999999,153.45500000000001 L268.06999999999999,153.45400000000001 L268.06999999999999,153.45500000000001 L268.06900000000002,153.45500000000001 L232.321,153.45500000000001 L232.31999999999999,153.45500000000001 L232.31999999999999,153.45400000000001 L232.31999999999999,153.45500000000001 L232.27085582436357,153.45500000000001 L232.26885582436358,153.45500000000001 L232.12293773580481,153.45500000000004 L232.12093773580477,153.45500000000001 L231.88466296493604,153.45500000000001 L231.88266296493603,153.45500000000004 L231.56797960371745,153.45500000000001 L231.56597960371744,153.45500000000001 L231.18876747823509,153.45500000000004 L231.18676747823508,153.45500000000001 L230.76604186791261,153.45500000000001 L230.7640418679126,153.45500000000004 L230.321,153.45500000000001 L230.31899999999999,153.45500000000001 L229.87595813208731,153.45499999999998 L229.87395813208732,153.45500000000001 L229.45323252176487,153.45500000000001 L229.45123252176487,153.45499999999998 L229.07402039628252,153.45500000000001 L229.07202039628251,153.45500000000001 L228.75733703506395,153.45500000000001 L228.75533703506392,153.45500000000001 L228.51906226419513,153.45500000000001 L228.51706226419512,153.45500000000001 L228.37114417563632,153.45500000000001 L228.36914417563631,153.45500000000001 L228.31999999999999,153.45500000000001 L228.31999999999999,153.45400000000001 L228.31999999999999,153.45500000000001 L228.31899999999999,153.45500000000001 L191.68100000000001,153.45500000000001 L191.68000000000001,153.45500000000001 L191.68000000000001,153.45400000000001 L191.68000000000001,153.45500000000001 L191.63085582436364,153.45500000000001 L191.62885582436363,153.45500000000001 L191.48293773580482,153.45500000000001 L191.48093773580479,153.45500000000001 L191.24466296493605,153.45500000000001 L191.24266296493605,153.45500000000001 L190.9279796037174,153.45500000000001 L190.92597960371742,153.45500000000001 L190.54876747823508,153.45500000000004 L190.54676747823513,153.45500000000001 L190.12604186791262,153.45500000000001 L190.12404186791261,153.45500000000004 L189.68100000000001,153.45500000000001 L189.679,153.45500000000001 L189.23595813208735,153.45500000000004 L189.23395813208737,153.45500000000001 L188.81323252176489,153.45500000000001 L188.81123252176488,153.45500000000004 L188.43402039628253,153.45500000000001 L188.4320203962825,153.45500000000001 L188.11733703506388,153.45500000000001 L188.1153370350639,153.45500000000001 L187.87906226419511,153.45500000000001 L187.8770622641951,153.45500000000001 L187.73114417563633,153.45500000000001 L187.72914417563632,153.45500000000001 L187.68000000000001,153.45500000000001 L187.68000000000001,153.45400000000001 L187.68000000000001,153.45500000000001 L187.679,153.45500000000001 L151.93099999999998,153.45500000000001 L151.92999999999998,153.45500000000001 L151.92999999999998,153.45400000000001 L151.92999999999998,153.45500000000001 L151.88085582436364,153.45500000000001 L151.87885582436363,153.45500000000001 L151.73293773580482,153.45500000000004 L151.73093773580482,153.45500000000001 L151.49466296493605,153.45500000000001 L151.49266296493602,153.45500000000004 L151.17797960371743,153.45500000000001 L151.17597960371742,153.45500000000001 L150.79876747823511,153.45500000000004 L150.7967674782351,153.45500000000001 L150.37604186791262,153.45500000000001 L150.37404186791261,153.45500000000004 L149.93099999999998,153.45500000000001 L149.92899999999997,153.45500000000001 L149.48595813208735,153.45500000000004 L149.48395813208734,153.45500000000001 L149.06323252176486,153.45500000000001 L149.06123252176488,153.45500000000004 L149.03999999999996,153.45500000000001 L149.03999999999996,130.405 L149.04099999999997,130.405 L149.03999999999996,130.405 L149.03999999999996,127.54500000000002 Z" style="fill: rgb(249.19287302264667, 249.19287302264667, 249.19287302264667)" ifc:pointInside="203.89333333333332,136.18133333333336" class="IfcWall"/>
			<path d="M147.98114417563633,153.45500000000001 L148.1270622641951,153.45500000000004 L148.12906226419514,153.45500000000001 L148.3653370350639,153.45500000000001 L148.36733703506391,153.45500000000004 L148.68202039628252,153.45500000000001 L148.68402039628253,153.45500000000001 L148.98999999999995,153.45500000000001 L148.98999999999995,153.45600000000002 L148.98999999999995,153.45500000000001 L149.03899999999996,153.45500000000001 L149.03999999999996,153.45500000000001 L149.03999999999996,153.45600000000002 L149.03999999999996,153.45500000000001 L149.06123252176488,153.45500000000004 L149.06323252176486,153.45500000000001 L149.48395813208734,153.45500000000001 L149.48595813208735,153.45500000000004 L149.92899999999997,153.45500000000001 L149.93099999999998,153.45500000000001 L150.37404186791261,153.45500000000004 L150.37604186791262,153.45500000000001 L150.7967674782351,153.45500000000001 L150.79876747823511,153.45500000000004 L151.17597960371742,153.45500000000001 L151.17797960371743,153.45500000000001 L151.49266296493602,153.45500000000004 L151.49466296493605,153.45500000000001 L151.73093773580482,153.45500000000001 L151.73293773580482,153.45500000000004 L151.87885582436363,153.45500000000001 L151.88085582436364,153.45500000000001 L151.92999999999998,153.45500000000001 L151.92999999999998,169.45500000000001 L151.88085582436364,169.45500000000001 L151.87885582436363,169.45500000000001 L151.73293773580482,169.45500000000004 L151.73093773580482,169.45500000000001 L151.49466296493605,169.45500000000001 L151.49266296493602,169.45500000000004 L151.17797960371743,169.45500000000001 L151.17597960371742,169.45500000000001 L150.79876747823511,169.45500000000004 L150.7967674782351,169.45500000000001 L150.37604186791262,169.45500000000001 L150.37404186791261,169.45500000000004 L149.93099999999998,169.45500000000001 L149.92899999999997,169.45500000000001 L149.48595813208735,169.45500000000004 L149.48395813208734,169.45500000000001 L149.06323252176486,169.45500000000001 L149.06123252176488,169.45500000000004 L148.68402039628253,169.45500000000001 L148.68202039628252,169.45500000000001 L148.36733703506391,169.45500000000004 L148.3653370350639,169.45500000000001 L148.12906226419514,169.45500000000001 L148.1270622641951,169.45500000000004 L147.98114417563633,169.45500000000001 L147.97914417563632,169.45500000000001 L147.93000000000001,169.45500000000001 L147.93000000000001,153.45500000000001 L147.97914417563632,153.45500000000001 Z" style="fill: rgb(245.16471087643615, 245.16471087643615, 245.16471087643615)" ifc:pointInside="149.33597208805821,158.7886666666667" class="IfcFooting"/>
			<path d="M228.51706226419512,169.45500000000001 L228.37114417563632,169.45500000000001 L228.36914417563631,169.45500000000001 L228.321,169.45500000000004 L228.31999999999999,169.45500000000001 L228.31999999999999,169.25500000000002 L228.321,169.25500000000002 L228.31999999999999,169.25500000000002 L228.31999999999999,153.45500000000001 L228.36914417563631,153.45500000000001 L228.37114417563632,153.45500000000001 L228.51706226419512,153.45500000000001 L228.51906226419513,153.45500000000001 L228.75533703506392,153.45500000000001 L228.75733703506395,153.45500000000001 L229.07202039628251,153.45500000000001 L229.07402039628252,153.45500000000001 L229.45123252176487,153.45499999999998 L229.45323252176487,153.45500000000001 L229.87395813208732,153.45500000000001 L229.87595813208731,153.45499999999998 L230.31899999999999,153.45500000000001 L230.321,153.45500000000001 L230.7640418679126,153.45500000000004 L230.76604186791261,153.45500000000001 L231.18676747823508,153.45500000000001 L231.18876747823509,153.45500000000004 L231.56597960371744,153.45500000000001 L231.56797960371745,153.45500000000001 L231.88266296493603,153.45500000000004 L231.88466296493604,153.45500000000001 L232.12093773580477,153.45500000000001 L232.12293773580481,153.45500000000004 L232.26885582436358,153.45500000000001 L232.27085582436357,153.45500000000001 L232.31999999999999,153.45500000000001 L232.31999999999999,169.25500000000002 L232.31899999999999,169.25500000000002 L232.31999999999999,169.25500000000002 L232.31999999999999,169.45500000000004 L232.31899999999999,169.45500000000001 L232.27085582436357,169.45500000000001 L232.26885582436358,169.45499999999998 L232.12293773580481,169.45500000000004 L232.12093773580477,169.45500000000001 L231.88466296493604,169.45500000000001 L231.88266296493603,169.45500000000004 L231.56797960371745,169.45500000000001 L231.56597960371744,169.45500000000001 L231.18876747823509,169.45500000000004 L231.18676747823508,169.45500000000001 L230.76604186791261,169.45500000000001 L230.7640418679126,169.45500000000004 L230.321,169.45500000000001 L230.31899999999999,169.45500000000001 L229.87595813208731,169.45499999999998 L229.87395813208732,169.45500000000001 L229.45323252176487,169.45500000000001 L229.45123252176487,169.45499999999998 L229.07402039628252,169.45500000000001 L229.07202039628251,169.45500000000001 L228.75733703506395,169.45500000000001 L228.75533703506392,169.45500000000001 L228.51906226419513,169.45500000000001 Z" style="fill: rgb(245.1363649750521, 245.1363649750521, 245.1363649750521)" ifc:pointInside="230.98699999999997,164.05500000000001" class="IfcFooting"/>
			<path d="M242.10482300479487,169.45500000000001 L232.321,169.45499999999998 L232.31999999999999,169.45500000000004 L232.31999999999999,169.25500000000002 L242.10482300479487,169.25500000000002 Z" style="fill: rgb(238.48585767205583, 238.48585767205583, 238.48585767205583)" ifc:pointInside="235.58194100159827,169.32166666666669" class="IfcCableSegment"/>
			<path d="M271.63266296493606,169.45500000000004 L271.3179796037175,169.45500000000001 L271.31597960371749,169.45500000000001 L270.93876747823515,169.45499999999998 L270.93676747823514,169.45500000000001 L270.51604186791258,169.45500000000001 L270.51404186791262,169.45499999999998 L270.07099999999997,169.45500000000001 L270.06900000000002,169.45500000000001 L269.62595813208731,169.45499999999998 L269.6239581320873,169.45500000000001 L269.2032325217649,169.45500000000001 L269.20123252176489,169.45499999999998 L268.82402039628255,169.45500000000001 L268.82202039628248,169.45500000000001 L268.50733703506393,169.45500000000004 L268.50533703506392,169.45500000000001 L268.2690622641951,169.45500000000001 L268.26706226419515,169.45500000000004 L268.12114417563635,169.45500000000001 L268.11914417563634,169.45500000000001 L268.06999999999999,169.45500000000001 L268.06999999999999,153.45500000000001 L268.11914417563634,153.45500000000001 L268.12114417563635,153.45500000000001 L268.26706226419515,153.45500000000004 L268.2690622641951,153.45500000000001 L268.50533703506392,153.45500000000001 L268.50733703506393,153.45500000000004 L268.82202039628248,153.45500000000001 L268.82402039628255,153.45500000000001 L269.20123252176489,153.45499999999998 L269.2032325217649,153.45500000000001 L269.6239581320873,153.45500000000001 L269.62595813208731,153.45499999999998 L270.06900000000002,153.45500000000001 L270.07099999999997,153.45500000000001 L270.51404186791262,153.45499999999998 L270.51604186791258,153.45500000000001 L270.93676747823514,153.45500000000001 L270.93876747823515,153.45499999999998 L270.95999999999998,153.45500000000001 L270.95999999999998,153.45600000000002 L270.95999999999998,153.45500000000001 L270.96099999999996,153.45500000000001 L271.31597960371749,153.45500000000001 L271.3179796037175,153.45500000000001 L271.63266296493606,153.45500000000004 L271.63466296493601,153.45500000000001 L271.87093773580483,153.45500000000001 L271.87293773580484,153.45500000000004 L272.01885582436358,153.45500000000001 L272.02085582436359,153.45500000000001 L272.06999999999999,153.45500000000001 L272.06999999999999,169.45500000000001 L272.02085582436359,169.45500000000001 L272.01885582436358,169.45500000000001 L271.87293773580484,169.45500000000004 L271.87093773580483,169.45500000000001 L271.63466296493601,169.45500000000001 Z" style="fill: rgb(245.1647108764356, 245.1647108764356, 245.1647108764356)" ifc:pointInside="270.66402791194173,158.78866666666667" class="IfcFooting"/>
		</g>
	</g>
	
    
	</svg>